<svg id="Grupo_1941" data-name="Grupo 1941" xmlns="http://www.w3.org/2000/svg" width="32" height="32" viewBox="0 0 32 32">
  <g id="União_2" data-name="União 2" transform="translate(32) rotate(90)" fill="none">
    <path d="M16,32A16,16,0,1,0,0,16,16,16,0,0,0,16,32Z" stroke="none"/>
    <path d="M 16 29 C 19.4724292755127 29 22.73700904846191 27.64776039123535 25.19239044189453 25.19239044189453 C 27.64776039123535 22.73700904846191 29 19.4724292755127 29 16 C 29 12.52758026123047 27.64776039123535 9.26298999786377 25.19239044189453 6.807610034942627 C 22.73700904846191 4.352240085601807 19.4724292755127 3 16 3 C 12.52756977081299 3 9.26298999786377 4.352240085601807 6.807610034942627 6.807610034942627 C 4.352240085601807 9.26298999786377 3 12.52758026123047 3 16 C 3 19.4724292755127 4.352240085601807 22.73700904846191 6.807610034942627 25.19239044189453 C 9.26298999786377 27.64776039123535 12.52756977081299 29 16 29 M 16 32 C 7.163440227508545 32 0 24.8365592956543 0 16 C 0 7.163449764251709 7.163440227508545 0 16 0 C 24.8365592956543 0 32 7.163449764251709 32 16 C 32 24.8365592956543 24.8365592956543 32 16 32 Z" stroke="none" fill="#d03837"/>
  </g>
  <g id="Grupo_15" data-name="Grupo 15" transform="translate(12.098 9.311)">
    <line id="Linha_1" data-name="Linha 1" x1="6.3" y2="6.3" transform="translate(0)" fill="none" stroke="#d03837" stroke-linecap="round" stroke-width="3"/>
    <line id="Linha_2" data-name="Linha 2" x1="6.3" y1="6.3" transform="translate(0 6.3)" fill="none" stroke="#d03837" stroke-linecap="round" stroke-width="3"/>
  </g>
</svg>
