<svg xmlns="http://www.w3.org/2000/svg" width="32" height="32" viewBox="0 0 32 32">
  <g id="Grupo_1942" data-name="Grupo 1942" transform="translate(0.698)">
    <g id="União_2" data-name="União 2" transform="translate(31.302) rotate(90)" fill="none">
      <path d="M16,0A16,16,0,1,1,0,16,16,16,0,0,1,16,0Z" stroke="none"/>
      <path d="M 16 3 C 12.5275707244873 3 9.262990951538086 4.352239608764648 6.807609558105469 6.807609558105469 C 4.352239608764648 9.262990951538086 3 12.5275707244873 3 16 C 3 19.47241973876953 4.352239608764648 22.73701095581055 6.807609558105469 25.19239044189453 C 9.262990951538086 27.64776039123535 12.5275707244873 29 16 29 C 19.47243118286133 29 22.73701095581055 27.64776039123535 25.19239044189453 25.19239044189453 C 27.64776039123535 22.73701095581055 29 19.47241973876953 29 16 C 29 12.5275707244873 27.64776039123535 9.262990951538086 25.19239044189453 6.807609558105469 C 22.73701095581055 4.352239608764648 19.47243118286133 3 16 3 M 16 0 C 24.8365592956543 0 32 7.163440704345703 32 16 C 32 24.83654975891113 24.8365592956543 32 16 32 C 7.163440704345703 32 0 24.83654975891113 0 16 C 0 7.163440704345703 7.163440704345703 0 16 0 Z" stroke="none" fill="#d03837"/>
    </g>
    <g id="Grupo_15" data-name="Grupo 15" transform="translate(13.248 9.311)">
      <line id="Linha_1" data-name="Linha 1" x2="6.3" y2="6.3" transform="translate(0)" fill="none" stroke="#d03837" stroke-linecap="round" stroke-width="3"/>
      <line id="Linha_2" data-name="Linha 2" y1="6.3" x2="6.3" transform="translate(0 6.3)" fill="none" stroke="#d03837" stroke-linecap="round" stroke-width="3"/>
    </g>
  </g>
</svg>
