<svg id="Grupo_1055" data-name="Grupo 1055" xmlns="http://www.w3.org/2000/svg" xmlns:xlink="http://www.w3.org/1999/xlink" width="59.394" height="78.517" viewBox="0 0 59.394 78.517">
  <defs>
    <clipPath id="clip-path">
      <rect id="Retângulo_363" data-name="Retângulo 363" width="59.394" height="78.517" fill="none"/>
    </clipPath>
  </defs>
  <g id="Grupo_1054" data-name="Grupo 1054" clip-path="url(#clip-path)">
    <path id="Caminho_4286" data-name="Caminho 4286" d="M18.51,78.253a.376.376,0,0,0,.472.247c.677-.212,1.343-.4,1.981-.557a.376.376,0,0,0,.269-.477l-9.016-30.1c2.6-2.129,10.962-8,21.35-5.521,15.156,3.628,25.309-8.73,25.41-8.855l.337-.42a.377.377,0,0,0,.068-.34L50.179.273a.376.376,0,0,0-.654-.132L48.268,1.7c-.092.115-9,11.11-22.542,7.882A26.584,26.584,0,0,0,.5,16.889l-.4.442a.376.376,0,0,0-.08.364Zm-7.2-33.786L3.15,18.246c2.463-2.28,10.561-8.617,21.921-5.91,11.487,2.737,20.063-3.65,23.62-7L56.3,31.744c-1.914,2.053-10.357,10.15-22.075,7.344C23.506,36.537,14.9,41.74,11.308,44.466" transform="translate(0 0)" fill="#ed1c24"/>
  </g>
</svg>
