<svg id="Grupo_1053" data-name="Grupo 1053" xmlns="http://www.w3.org/2000/svg" xmlns:xlink="http://www.w3.org/1999/xlink" width="53.384" height="65.587" viewBox="0 0 53.384 65.587">
  <defs>
    <clipPath id="clip-path">
      <rect id="Retângulo_362" data-name="Retângulo 362" width="53.384" height="65.587" fill="none"/>
    </clipPath>
  </defs>
  <g id="Grupo_1052" data-name="Grupo 1052" clip-path="url(#clip-path)">
    <path id="Caminho_4285" data-name="Caminho 4285" d="M42.265,65.587a1.538,1.538,0,0,1-1.085-.444,1.5,1.5,0,0,1-.448-1.065V47.944H12.653V64.072a1.513,1.513,0,0,1-.449,1.07,1.538,1.538,0,0,1-1.085.444H1.535A1.555,1.555,0,0,1,.45,65.143,1.513,1.513,0,0,1,0,64.072V29.882a1.526,1.526,0,0,1,1.535-1.514H4.792V11.419a11.3,11.3,0,0,1,3.4-8.068A11.607,11.607,0,0,1,16.367,0H37.018a11.606,11.606,0,0,1,8.176,3.352,11.468,11.468,0,0,1,1.629,2.025l.053.083c.061.1.119.2.177.3l.077.134q.081.145.158.29l.074.144c.05.1.1.2.148.3l.034.075c.088.19.176.4.259.609l.07.177c.032.085.061.169.09.254s.053.155.076.226c.028.087.055.173.081.259s.046.16.068.24L48.2,8.5c.019.067.037.135.054.2.027.109.051.219.076.33s.042.2.061.3.041.22.059.331c.008.053.031.216.031.216.014.1.027.2.038.3.008.072.015.145.022.219.01.1.017.209.024.313l.013.2q.01.214.012.429l0,.063V28.368h3.257a1.557,1.557,0,0,1,1.087.444,1.514,1.514,0,0,1,.45,1.07v34.19a1.513,1.513,0,0,1-.45,1.07,1.555,1.555,0,0,1-1.085.444ZM43.8,62.559h6.514V31.4H43.8Zm-40.729,0H9.584V31.4H3.07Zm9.583-17.642H40.732V40.711H12.653Zm3.712-41.89a8.618,8.618,0,0,0-6.013,2.458,8.281,8.281,0,0,0-2.491,5.934V28.368h3.258a1.538,1.538,0,0,1,1.086.444,1.494,1.494,0,0,1,.448,1.07v7.8H40.731v-7.8a1.526,1.526,0,0,1,1.534-1.514h3.258V11.419a8.281,8.281,0,0,0-2.491-5.934,8.618,8.618,0,0,0-6.013-2.458Z" transform="translate(0 0.001)" fill="#ed1c24"/>
  </g>
</svg>
