<svg id="Grupo_1512" data-name="Grupo 1512" xmlns="http://www.w3.org/2000/svg" width="28.653" height="33.838" viewBox="0 0 28.653 33.838">
  <ellipse id="Elipse_252" data-name="Elipse 252" cx="3.299" cy="3.299" rx="3.299" ry="3.299" transform="translate(8.932 0)" fill="#fff"/>
  <path id="Caminho_4358" data-name="Caminho 4358" d="M112.3,171.287l-3.793-7a1.834,1.834,0,0,0-1.093-.885l-5.677-1.677a28.957,28.957,0,0,1,1.7-6.469,3.513,3.513,0,0,0,.134-.362,19.168,19.168,0,0,0,9.344-3.365,1.173,1.173,0,1,0-1.274-1.97,16.959,16.959,0,0,1-8.162,2.986,1.785,1.785,0,0,0-.956-.955,3.356,3.356,0,0,0-4.1,2c-.2.409-.379.8-.542,1.174-.071.2-.141.419-.207.641a20.35,20.35,0,0,0-4.519,7.4,1.173,1.173,0,1,0,2.2.819,22.434,22.434,0,0,1,1.269-2.82c-.033.311-.057.6-.071.849a3.433,3.433,0,0,0,.5,1.634,1.829,1.829,0,0,0,1.239,1.245l.031.009a19.309,19.309,0,0,1-1.908,11.682,1.833,1.833,0,1,0,3.244,1.708,22.648,22.648,0,0,0,2.485-12.262l3.5,1.033,2.939,5.426.491.906a1.833,1.833,0,1,0,3.223-1.746Z" transform="translate(-93.088 -145.07)" fill="#fff"/>
  <ellipse id="Elipse_253" data-name="Elipse 253" cx="3.299" cy="3.299" rx="3.299" ry="3.299" transform="translate(22.055 20.077)" fill="#fff"/>
</svg>
