<?xml version="1.0" encoding="utf-8"?>
<!-- Generator: Adobe Illustrator 25.4.1, SVG Export Plug-In . SVG Version: 6.00 Build 0)  -->
<svg version="1.1" id="Grupo_461" xmlns="http://www.w3.org/2000/svg" xmlns:xlink="http://www.w3.org/1999/xlink" x="0px" y="0px"
	 viewBox="0 0 18 18" style="enable-background:new 0 0 18 18;" xml:space="preserve">
<style type="text/css">
	.st0{fill:#D03837;}
</style>
<path id="Caminho_42" class="st0" d="M14.1,13.8c-0.7,0-1.4-0.3-1.9-0.8l-2.7-2.7c-0.2-0.2-0.5-0.2-0.7,0L6.1,13
	c-0.5,0.5-1.2,0.8-1.9,0.8H3.7l3.4,3.4c1.1,1.1,2.8,1.1,3.9,0l3.4-3.4L14.1,13.8z"/>
<path id="Caminho_43" class="st0" d="M4.2,4.2c0.7,0,1.4,0.3,1.9,0.8l2.7,2.7c0.2,0.2,0.5,0.2,0.7,0c0,0,0,0,0,0L12.2,5
	c0.5-0.5,1.2-0.8,1.9-0.8h0.3L11,0.8c-1.1-1.1-2.8-1.1-3.9,0c0,0,0,0,0,0l0,0L3.7,4.2H4.2z"/>
<path id="Caminho_44" class="st0" d="M17.2,7.1L15.2,5c0,0-0.1,0-0.1,0h-0.9c-0.5,0-1,0.2-1.3,0.5l-2.7,2.7c-0.5,0.5-1.3,0.5-1.8,0
	L5.5,5.6C5.2,5.2,4.7,5,4.2,5H3c0,0-0.1,0-0.1,0L0.8,7.1c-1.1,1.1-1.1,2.8,0,3.9L2.9,13c0,0,0.1,0,0.1,0h1.2c0.5,0,1-0.2,1.3-0.5
	l2.7-2.7c0.5-0.5,1.3-0.5,1.8,0l2.7,2.7c0.3,0.3,0.8,0.5,1.3,0.5H15c0.1,0,0.1,0,0.1,0l2.1-2.1C18.3,9.9,18.3,8.1,17.2,7.1
	C17.2,7.1,17.2,7.1,17.2,7.1L17.2,7.1"/>
</svg>
