<?xml version="1.0" encoding="utf-8"?>
<!-- Generator: Adobe Illustrator 25.4.1, SVG Export Plug-In . SVG Version: 6.00 Build 0)  -->
<svg version="1.1" id="Camada_1" xmlns="http://www.w3.org/2000/svg" xmlns:xlink="http://www.w3.org/1999/xlink" x="0px" y="0px"
	 viewBox="0 0 24 21" style="enable-background:new 0 0 24 21;" xml:space="preserve">
<style type="text/css">
	.st0{fill:#D03837;}
</style>
<g id="Grupo_463" transform="translate(-4 -5.5)">
	<path id="Caminho_45" class="st0" d="M9.4,10c-0.6,0-1,0.4-1,1v10c0,0.6,0.4,1,1,1s1-0.4,1-1V11C10.4,10.4,10,10,9.4,10z M13.8,10
		c-0.6,0-1,0.4-1,1v10c0,0.6,0.4,1,1,1s1-0.4,1-1V11C14.8,10.4,14.4,10,13.8,10z M18.2,10c-0.6,0-1,0.4-1,1v10c0,0.6,0.4,1,1,1
		s1-0.4,1-1V11C19.2,10.4,18.8,10,18.2,10z M22.6,10c-0.6,0-1,0.4-1,1v10c0,0.6,0.4,1,1,1s1-0.4,1-1V11C23.6,10.4,23.2,10,22.6,10z"
		/>
	<path id="Caminho_46" class="st0" d="M9,5.5H5c-0.6,0-1,0.4-1,1v4c0,0.6,0.4,1,1,1s1-0.4,1-1v-3h3c0.6,0,1-0.4,1-1S9.6,5.5,9,5.5z
		 M27,5.5h-4c-0.6,0-1,0.4-1,1s0.4,1,1,1h3v3c0,0.6,0.4,1,1,1s1-0.4,1-1v-4C28,5.9,27.6,5.5,27,5.5z M27,20.5c-0.6,0-1,0.4-1,1v3h-3
		c-0.6,0-1,0.4-1,1s0.4,1,1,1h4c0.6,0,1-0.4,1-1v-4C28,20.9,27.6,20.5,27,20.5z M9,24.5H6v-3c0-0.6-0.4-1-1-1s-1,0.4-1,1v4
		c0,0.6,0.4,1,1,1h4c0.6,0,1-0.4,1-1S9.6,24.5,9,24.5z"/>
</g>
</svg>
