<?xml version="1.0" encoding="utf-8"?>
<!-- Generator: Adobe Illustrator 25.4.1, SVG Export Plug-In . SVG Version: 6.00 Build 0)  -->
<svg version="1.1" id="Camada_1" xmlns="http://www.w3.org/2000/svg" xmlns:xlink="http://www.w3.org/1999/xlink" x="0px" y="0px"
	 viewBox="0 0 17.3 19.9" style="enable-background:new 0 0 17.3 19.9;" xml:space="preserve">
<style type="text/css">
	.st0{fill:#FFFFFF;}
</style>
<path class="st0" d="M14.3,9.1C14,6.5,12,4.5,9.5,4.2v-1c0-0.5-0.4-0.8-0.8-0.8c-0.5,0-0.8,0.4-0.8,0.8v1C4.7,4.7,2.5,7.6,3,10.8
	c0.4,2.6,2.4,4.6,4.9,4.9v1c0,0.5,0.4,0.8,0.8,0.8c0.5,0,0.8-0.4,0.8-0.8v-1C12.7,15.2,14.8,12.2,14.3,9.1z M4.5,9
	c0.3-1.6,1.6-2.9,3.2-3.2v3C7.4,9,7.2,9.5,7.2,9.9s0.2,0.9,0.6,1.2v2.8C5.5,13.5,4,11.3,4.5,9z M12.7,10.7c-0.3,1.6-1.6,2.9-3.2,3.2
	v-2.7c0.4-0.3,0.7-0.7,0.7-1.3S9.9,9,9.5,8.7V5.8C11.7,6.3,13.2,8.5,12.7,10.7z"/>
</svg>
