<svg id="Grupo_1514" data-name="Grupo 1514" xmlns="http://www.w3.org/2000/svg" width="33.876" height="27.643" viewBox="0 0 33.876 27.643">
  <path id="Caminho_4362" data-name="Caminho 4362" d="M287.861,514.273a1.749,1.749,0,0,0,1.163-.441l4.769-4.226,4.41,2.222.386.656-3.781-.306a1.755,1.755,0,0,0-1.541.69l-4.776,6.3a1.755,1.755,0,1,0,2.8,2.12l4.195-5.537,5.536.448c.059,0,.118.006.176.005a1.1,1.1,0,0,0,.795-.127l7.858-4.626L318.3,515.9a1.146,1.146,0,0,0,1.067-2.029l-8.72-4.584-.927-1.576a4.068,4.068,0,0,1-.332-.479,4.13,4.13,0,0,1-.249-.509l-.981-1.667-1.177-9.7a1.146,1.146,0,0,0-2.276.276l1.116,9.2-6.318,3.719-5.193-2.616a1.756,1.756,0,0,0-1.954.254L286.7,511.2a1.756,1.756,0,0,0,1.165,3.069Z" transform="translate(-286.105 -494.344)" fill="#fff"/>
  <path id="Caminho_4363" data-name="Caminho 4363" d="M894.054,689.648a3.224,3.224,0,1,1-4.414-1.143,3.224,3.224,0,0,1,4.414,1.143" transform="translate(-864.471 -680.471)" fill="#fff"/>
  <path id="Caminho_4364" data-name="Caminho 4364" d="M398.851,732.33a.293.293,0,0,1-.224-.1l-1.058-1.242a.294.294,0,1,1,.447-.381l1.058,1.242a.294.294,0,0,1-.224.484Z" transform="translate(-393.136 -721.249)" fill="#fff"/>
  <path id="Caminho_4365" data-name="Caminho 4365" d="M446.062,701.628a.294.294,0,0,1-.29-.251l-.27-1.848a.294.294,0,0,1,.581-.085l.27,1.848a.294.294,0,0,1-.248.333A.309.309,0,0,1,446.062,701.628Z" transform="translate(-439.255 -691.169)" fill="#fff"/>
  <path id="Caminho_4366" data-name="Caminho 4366" d="M485.182,723.615a.294.294,0,0,1-.224-.484l1.058-1.242a.294.294,0,0,1,.447.381l-1.058,1.242A.293.293,0,0,1,485.182,723.615Z" transform="translate(-477.101 -712.876)" fill="#fff"/>
</svg>
