<svg id="Grupo_1513" data-name="Grupo 1513" xmlns="http://www.w3.org/2000/svg" width="24.125" height="35.355" viewBox="0 0 24.125 35.355">
  <path id="Caminho_4359" data-name="Caminho 4359" d="M261.772,271.72a1.39,1.39,0,0,0-1.834-.7c-.949.411-2.277,1.012-3.194,1.392a.031.031,0,0,0-.032-.032c-.538-1.392-1.328-3.51-3.321-4.3-.854-.348-1.992-.854-2.119-.917-2.815-1.2-7.558-.538-8.317-.253-.411.158-1.107.411-3.447,4.807a1.433,1.433,0,0,0,.569,1.9,1.7,1.7,0,0,0,.664.158,1.436,1.436,0,0,0,1.233-.727,31.218,31.218,0,0,1,2.119-3.542,17.132,17.132,0,0,1,2.783-.221,17.516,17.516,0,0,0-2.688,6.04,49.338,49.338,0,0,1-2.973,7.4c-1.486,2.53-3.131,4.9-3.162,4.933a1.664,1.664,0,0,0,.411,2.277,2.783,2.783,0,0,0,.917.19,1.65,1.65,0,0,0,1.328-.7c.063-.095,1.739-2.5,3.289-5.123a32.9,32.9,0,0,0,2.467-5.692,30.072,30.072,0,0,1,3.921,2.878c-.19,1.107-1.107,4.111-1.929,6.609a1.63,1.63,0,0,0,1.044,2.056,1.434,1.434,0,0,0,.506.095,1.634,1.634,0,0,0,1.55-1.107c.822-2.467,2.182-6.768,2.151-8s-1.138-2.309-3.574-3.985A27.707,27.707,0,0,1,253.2,271.4a9.607,9.607,0,0,1,.886,1.929c.316.791.822,2.214,1.992,2.214a1.467,1.467,0,0,0,.6-.127c.791-.285,4.016-1.708,4.4-1.9a1.344,1.344,0,0,0,.7-1.8Z" transform="translate(-237.77 -254.898)" fill="#fff"/>
  <path id="Caminho_4360" data-name="Caminho 4360" d="M717.7,30.9a3.257,3.257,0,1,1-4.276,1.712A3.257,3.257,0,0,1,717.7,30.9" transform="translate(-700.627 -25.274)" fill="#fff"/>
  <path id="Caminho_4361" data-name="Caminho 4361" d="M264.769-172.559a2.276,2.276,0,0,1,1.2,2.988,2.276,2.276,0,0,1-2.988,1.2,2.276,2.276,0,0,1-1.2-2.988,2.276,2.276,0,0,1,2.988-1.2" transform="translate(-260.969 172.743)" fill="#fff"/>
</svg>
