<svg xmlns="http://www.w3.org/2000/svg" width="17.111" height="20.383" viewBox="0 0 17.111 20.383">
  <g id="noun-news-968052" transform="translate(-3.662 0.63)">
    <g id="Grupo_826" data-name="Grupo 826" transform="translate(-9.505 41.914)">
      <path id="Caminho_4254" data-name="Caminho 4254" d="M14.5-14a4.506,4.506,0,0,0,3.2,1.318h8.044a4.547,4.547,0,0,0,4.534-4.535,4.5,4.5,0,0,0-1.346-3.21,4.52,4.52,0,0,0-3.208-1.324H17.686a4.505,4.505,0,0,0-3.2,1.338,4.5,4.5,0,0,0-1.318,3.21A4.5,4.5,0,0,0,14.5-14Zm3.182-6.65h8.029a3.442,3.442,0,0,1,3.435,3.434v.062a3.383,3.383,0,0,1-1.023,2.4,3.379,3.379,0,0,1-2.379.971H17.686a3.442,3.442,0,0,1-3.434-3.434h0A3.44,3.44,0,0,1,17.686-20.647Z" transform="translate(0 -9.483)" fill="#fff"/>
      <path id="Caminho_4255" data-name="Caminho 4255" d="M19.746-37.562A4.973,4.973,0,0,0,24.7-32.634a4.967,4.967,0,0,0,4.955-4.983A4.96,4.96,0,0,0,24.7-42.544h-.028a4.922,4.922,0,0,0-3.5,1.471A4.925,4.925,0,0,0,19.746-37.562ZM24.7-41.413a3.85,3.85,0,0,1,2.751,1.154,3.828,3.828,0,0,1,1.1,2.735A3.86,3.86,0,0,1,24.7-33.7h-.036a3.858,3.858,0,0,1-3.818-3.89h0A3.87,3.87,0,0,1,24.7-41.413Z" transform="translate(-3)" fill="#fff"/>
    </g>
  </g>
</svg>
