<svg id="noun-soccer-1671461" xmlns="http://www.w3.org/2000/svg" width="24.291" height="30.726" viewBox="0 0 24.291 30.726">
  <path id="Caminho_4350" data-name="Caminho 4350" d="M172.992,295.118a33.357,33.357,0,0,1-2.878-2.975c-.032-.1-.129-.388-.194-.615-.42-1.455-1.261-4.172-3.881-4.689-.679-.129-2.037-.421-2.2-.453-2.878-.614-7.277.906-7.988,1.326-.356.226-1,.614-2.361,5.207a1.336,1.336,0,0,0,.906,1.682,1.625,1.625,0,0,0,.388.065,1.348,1.348,0,0,0,1.294-.97,26.6,26.6,0,0,1,1.358-3.751,16.964,16.964,0,0,1,2.587-.744,18.322,18.322,0,0,0-1.423,5.563,19.008,19.008,0,0,1-2.458,3.751c-1.682-.453-4.98-1.391-5.013-1.391a1.577,1.577,0,1,0-.841,3.04c.162.032,4.075,1.164,5.53,1.52a2.112,2.112,0,0,0,.55.1c.776,0,2.037-.517,3.913-3.525a25.085,25.085,0,0,1,3.331,3.654c-.065,1.067-.485,4.366-.776,6.306a1.554,1.554,0,0,0,1.326,1.779c.065,0,.162.032.226.032a1.541,1.541,0,0,0,1.552-1.358c.129-.938.841-5.724.841-6.985,0-.97-.679-2.005-2.49-3.881a34.131,34.131,0,0,1,2.1-7.665,8.154,8.154,0,0,1,.906,2.134,5.42,5.42,0,0,0,.485,1.261,30.338,30.338,0,0,0,3.331,3.525,1.266,1.266,0,0,0,.938.356,1.4,1.4,0,0,0,1-.421,1.3,1.3,0,0,0-.065-1.876Z" transform="translate(-149.134 -279.323)" fill="#fff"/>
  <path id="Caminho_4351" data-name="Caminho 4351" d="M637.349,29.6a3.169,3.169,0,1,1-3.759,2.442,3.169,3.169,0,0,1,3.759-2.442" transform="translate(-620.466 -29.527)" fill="#fff"/>
  <path id="Caminho_4352" data-name="Caminho 4352" d="M352.433,934.424a3.169,3.169,0,1,1-3.759,2.442,3.17,3.17,0,0,1,3.759-2.442" transform="translate(-343.229 -909.969)" fill="#fff"/>
</svg>
