<?xml version="1.0" encoding="utf-8"?>
<!-- Generator: Adobe Illustrator 25.4.1, SVG Export Plug-In . SVG Version: 6.00 Build 0)  -->
<svg version="1.1" id="Camada_1" xmlns="http://www.w3.org/2000/svg" xmlns:xlink="http://www.w3.org/1999/xlink" x="0px" y="0px"
	 viewBox="0 0 26.9 21" style="enable-background:new 0 0 26.9 21;" xml:space="preserve">
<style type="text/css">
	.st0{fill:#D03837;}
</style>
<g id="Grupo_464" transform="translate(0 -0.923)">
	<path id="Caminho_47" class="st0" d="M6.2,0.9c-1.1,0-1.9,0.9-2,2v2.2H2C0.9,5.1,0,6,0,7.1V20c0,1.1,0.9,1.9,2,2h18.7
		c1.1,0,1.9-0.9,2-2v-2.2h2.2c1.1,0,1.9-0.9,2-2V2.9c0-1.1-0.9-1.9-2-2H6.2z M6.2,2.6h18.8c0.1,0,0.3,0.1,0.3,0.2c0,0,0,0,0,0v12.9
		c0,0.1-0.1,0.3-0.2,0.3c0,0,0,0,0,0h-2.2v-9c0-0.1,0-0.3,0-0.4c-0.1-0.6-0.6-1.2-1.2-1.4c-0.1-0.1-0.2-0.1-0.4-0.1
		c-0.1,0-0.3,0-0.4,0H5.9V2.9C5.9,2.7,6,2.6,6.2,2.6C6.1,2.6,6.1,2.6,6.2,2.6L6.2,2.6z M2,6.8h18.7C20.8,6.8,21,6.9,21,7
		c0,0,0,0,0,0V9H1.7V7.1C1.7,6.9,1.8,6.8,2,6.8C1.9,6.8,1.9,6.8,2,6.8z M1.7,10.7H21v1H1.7V10.7z M1.7,13.4H21V20
		c0,0.1-0.1,0.3-0.2,0.3c0,0,0,0,0,0H2c-0.1,0-0.3-0.1-0.3-0.2c0,0,0,0,0,0V13.4z M3.6,15.1c-0.5,0-0.8,0.4-0.9,0.8
		c0,0.5,0.4,0.8,0.8,0.9l0,0h4.9c0.5,0,0.8-0.4,0.9-0.8c0-0.5-0.4-0.8-0.8-0.9C8.5,15.1,3.6,15.1,3.6,15.1z M3.5,17.2
		c-0.5,0-0.8,0.4-0.8,0.9c0,0.4,0.4,0.8,0.8,0.8h2.1c0.5,0,0.8-0.4,0.9-0.8c0-0.5-0.4-0.8-0.8-0.9L3.5,17.2L3.5,17.2z"/>
</g>
</svg>
