<svg xmlns="http://www.w3.org/2000/svg" width="26" height="6" viewBox="0 0 26 6">
  <g id="Grupo_1151" data-name="Grupo 1151" transform="translate(-37 -514)">
    <path id="Elipse_185" data-name="Elipse 185" d="M3,1A2,2,0,1,0,5,3,2,2,0,0,0,3,1M3,0A3,3,0,1,1,0,3,3,3,0,0,1,3,0Z" transform="translate(37 514)" fill="#fff"/>
    <path id="Elipse_186" data-name="Elipse 186" d="M3,1A2,2,0,1,0,5,3,2,2,0,0,0,3,1M3,0A3,3,0,1,1,0,3,3,3,0,0,1,3,0Z" transform="translate(47 514)" fill="#fff"/>
    <path id="Elipse_187" data-name="Elipse 187" d="M3,1A2,2,0,1,0,5,3,2,2,0,0,0,3,1M3,0A3,3,0,1,1,0,3,3,3,0,0,1,3,0Z" transform="translate(57 514)" fill="#fff"/>
  </g>
</svg>
