<svg xmlns="http://www.w3.org/2000/svg" width="68" height="51" viewBox="0 0 68 51">
  <g id="Grupo_1823" data-name="Grupo 1823" transform="translate(-162 -1287)">
    <rect id="Retângulo_736" data-name="Retângulo 736" width="68" height="51" rx="4" transform="translate(162 1287)" fill="#f1f1f1"/>
    <g id="noun-voucher-2757184" transform="translate(136.269 1059.406)">
      <path id="Caminho_4840" data-name="Caminho 4840" d="M81.393,251.184a2.157,2.157,0,0,0,.618-1.517v-4.9a2.173,2.173,0,0,0-2.171-2.171H39.623a2.173,2.173,0,0,0-2.171,2.171v4.9a2.161,2.161,0,0,0,.618,1.516l1.221,1.25a.727.727,0,0,1,0,1.011l-1.22,1.249a2.158,2.158,0,0,0-.619,1.517v4.9a2.173,2.173,0,0,0,2.171,2.171H79.84a2.173,2.173,0,0,0,2.171-2.171v-4.9a2.155,2.155,0,0,0-.618-1.516l-1.221-1.25a.727.727,0,0,1,0-1.011Zm-2.255,3.271,1.221,1.25a.717.717,0,0,1,.2.5v4.9a.724.724,0,0,1-.724.724H60.56v-.362a.724.724,0,0,0-1.447,0v.362H39.623a.725.725,0,0,1-.724-.724v-4.9a.722.722,0,0,1,.206-.506l1.221-1.25a2.183,2.183,0,0,0,0-3.033l-1.221-1.25a.715.715,0,0,1-.206-.5v-4.9a.725.725,0,0,1,.724-.724h19.49v.362a.724.724,0,0,0,1.447,0v-.362H79.84a.724.724,0,0,1,.724.724v4.9a.716.716,0,0,1-.206.506l-1.22,1.25a2.183,2.183,0,0,0,0,3.033Z" fill="#65383e"/>
      <path id="Caminho_4841" data-name="Caminho 4841" d="M786.674,532.88a.723.723,0,0,0-.724.724v2.439a.724.724,0,0,0,1.447,0V533.6A.724.724,0,0,0,786.674,532.88Z" transform="translate(-726.836 -281.885)" fill="#65383e"/>
      <path id="Caminho_4842" data-name="Caminho 4842" d="M786.674,364.38a.723.723,0,0,0-.724.724v2.439a.724.724,0,0,0,1.447,0V365.1A.723.723,0,0,0,786.674,364.38Z" transform="translate(-726.836 -118.261)" fill="#65383e"/>
      <path id="Caminho_4843" data-name="Caminho 4843" d="M786.674,701.43a.723.723,0,0,0-.724.724v2.439a.724.724,0,0,0,1.447,0v-2.439A.723.723,0,0,0,786.674,701.43Z" transform="translate(-726.836 -445.557)" fill="#65383e"/>
      <path id="Caminho_4844" data-name="Caminho 4844" d="M237.679,413.98a2.256,2.256,0,1,0-2.257,2.257A2.259,2.259,0,0,0,237.679,413.98Zm-3.066,0a.809.809,0,1,1,.808.81A.81.81,0,0,1,234.613,413.98Z" transform="translate(-190.051 -164.234)" fill="#65383e"/>
      <path id="Caminho_4845" data-name="Caminho 4845" d="M270.76,433.391a.722.722,0,0,0-1.02.072L262.33,442a.723.723,0,0,0,1.093.948l7.409-8.534a.721.721,0,0,0-.072-1.02Z" transform="translate(-218.198 -185.103)" fill="#65383e"/>
      <path id="Caminho_4846" data-name="Caminho 4846" d="M468.849,614.4a2.257,2.257,0,1,0,2.257,2.257A2.258,2.258,0,0,0,468.849,614.4Zm0,3.066a.809.809,0,1,1,.81-.809A.81.81,0,0,1,468.849,617.466Z" transform="translate(-416.722 -361.046)" fill="#65383e"/>
      <g id="g3246" transform="translate(18.063 200.5)">
        <path id="path3188" d="M64.2,55.131a1.855,1.855,0,0,1,.251-.67l.346.156.313-.425.313.095a3.551,3.551,0,0,0,.2,1.519l-.156.2A4.01,4.01,0,0,0,64.2,55.131Z" transform="translate(-10.418 -3.926)" fill="#d03837" fill-rule="evenodd"/>
        <path id="path3190" d="M61.629,53.557c-.692,0-.19-.813-.089-1.122a.9.9,0,0,0-.577-1.037v-.711c1.044.3,1.161,1,1.762.679v.352C61.788,52.679,62.2,53.551,61.629,53.557Z" transform="translate(-8.433 -1.774)" fill="#d03837" fill-rule="evenodd"/>
        <path id="path3192" d="M55.364,53.837a5.3,5.3,0,0,1,2.518-.032.845.845,0,0,1-.083.711,5.428,5.428,0,0,0-2.37.1A.824.824,0,0,1,55.364,53.837Z" transform="translate(-4.955 -3.604)" fill="#d03837" fill-rule="evenodd"/>
        <path id="path3194" d="M54.1,51.434c-1.231.209-.954,1.666,0,2.06v1.272c-2.7-.78-2.215-3.721,0-4.018Z" transform="translate(-3.086 -1.811)" fill="#d03837" fill-rule="evenodd"/>
        <path id="path3196" d="M58.685,59.252a4.776,4.776,0,0,1-1.136,0V56.073a4.817,4.817,0,0,1,1.136,0Z" transform="translate(-6.337 -5.06)" fill="#d03837" fill-rule="evenodd"/>
        <path id="path3202" d="M47.228,57.519c.659-.318.8-1.018,1.763-1.721a2.146,2.146,0,0,0,.2.882,1.31,1.31,0,0,0,.229,1.822,2.392,2.392,0,0,1-.5.746C48.068,58.739,47.871,58.077,47.228,57.519Z" transform="translate(0 -4.912)" fill="#d03837" fill-rule="evenodd"/>
        <path id="path3204" d="M55.158,65.192a2.337,2.337,0,0,0,.416-.682,5.9,5.9,0,0,0,2.533-.039,1.018,1.018,0,0,1,.033.682A5.918,5.918,0,0,1,55.158,65.192Z" transform="translate(-4.869 -10.237)" fill="#d03837" fill-rule="evenodd"/>
        <path id="path3206" d="M50.319,63.4l.083.36.5.033a6.619,6.619,0,0,0,2.029,1.037v-.7a1.438,1.438,0,0,1-.964-.6c.646-.695.777-1.567.368-1.744-.544-.236-.786.32-1.1.821A1.817,1.817,0,0,1,50.319,63.4Z" transform="translate(-1.898 -8.546)" fill="#d03837" fill-rule="evenodd"/>
        <path id="path3208" d="M57.717,48.894c0-.538.415-.473.61-.279-.027-.675-.575-.755-.838-.512a.778.778,0,0,0-.339-.305.849.849,0,0,0-.346.3c-.248-.227-.813-.171-.838.509.209-.18.6-.244.6.292l0,1.031a7.934,7.934,0,0,1,1.147,0Z" transform="translate(-5.365)" fill="#d03837" fill-rule="evenodd"/>
        <path id="path3216" d="M57.72,68.189c0,.538.415.473.61.279-.027.675-.575.755-.838.512a.778.778,0,0,1-.339.305.849.849,0,0,1-.346-.3c-.248.227-.813.171-.838-.509.209.18.6.244.6-.292l0-1.031a7.935,7.935,0,0,0,1.146,0Z" transform="translate(-5.367 -11.885)" fill="#d03837" fill-rule="evenodd"/>
        <path id="path3218" d="M60.935,59.187V60.4c1.393.464,1.172,2.2.018,2.157v.7a2.017,2.017,0,0,0,2.08-1.976C63.044,60.252,62.226,59.52,60.935,59.187Z" transform="translate(-8.416 -6.993)" fill="#d03837" fill-rule="evenodd"/>
        <path id="path3222" d="M66.626,63.2a1.47,1.47,0,0,0-.089-.612l.321-.214.362.3A1.937,1.937,0,0,1,66.626,63.2Z" transform="translate(-11.855 -8.949)" fill="#d03837" fill-rule="evenodd"/>
      </g>
    </g>
  </g>
</svg>
