<svg id="Grupo_1515" data-name="Grupo 1515" xmlns="http://www.w3.org/2000/svg" width="14.721" height="41.659" viewBox="0 0 14.721 41.659">
  <path id="Caminho_4356" data-name="Caminho 4356" d="M504.091,240.252a3.219,3.219,0,1,0-3.219-3.219A3.219,3.219,0,0,0,504.091,240.252Z" transform="translate(-496.937 -226.088)" fill="#fff"/>
  <path id="Caminho_4357" data-name="Caminho 4357" d="M403.545,17.488a1.058,1.058,0,0,0-.512-.99V13.826h-3v4.65h1.336c-.09,6.054-2.359,9.346-3.168,10.329h-4.982c-.024,0-.048,0-.071,0a3.021,3.021,0,0,0-1.988.893c-1.844,1.733-2.6,5.677-2.247,11.721h0A1.145,1.145,0,0,0,390.05,42.5l.068,0a1.145,1.145,0,0,0,1.076-1.209c-.294-5.027.276-7.707.915-9.037V53.716a1.769,1.769,0,0,0,3.538,0V40.8h.663V53.716a1.769,1.769,0,0,0,3.538,0V31.455A30.355,30.355,0,0,0,403.545,17.488Z" transform="translate(-388.824 -13.826)" fill="#fff"/>
</svg>
