<?xml version="1.0" encoding="utf-8"?>
<!-- Generator: Adobe Illustrator 25.4.1, SVG Export Plug-In . SVG Version: 6.00 Build 0)  -->
<svg version="1.1" id="Grupo_473" xmlns="http://www.w3.org/2000/svg" xmlns:xlink="http://www.w3.org/1999/xlink" x="0px" y="0px"
	 viewBox="0 0 24 22.6" style="enable-background:new 0 0 24 22.6;" xml:space="preserve">
<style type="text/css">
	.st0{fill:#FFFFFF;}
</style>
<g>
	<path id="Caminho_4235" class="st0" d="M20.1,7.2c-0.4-0.5-1-0.8-1.6-0.8H5.3L4.9,4.8c-0.3-0.9-1-1.5-2-1.5H0.7
		C0.3,3.2,0,3.5,0,3.9c0,0.3,0.3,0.7,0.7,0.7l0,0h2.2c0.3,0,0.6,0.3,0.7,0.5l2.7,10.5c0.3,0.9,1,1.5,2,1.5h8.6c0.9,0,1.8-0.7,2-1.5
		L20.4,9C20.6,8.4,20.4,7.7,20.1,7.2L20.1,7.2z M19.2,8.6l-1.6,6.7c-0.1,0.3-0.3,0.5-0.7,0.5H8.2c-0.3,0-0.6-0.3-0.7-0.5L5.6,7.8
		h12.8c0.3,0,0.4,0.1,0.6,0.3C19.2,8.2,19.2,8.5,19.2,8.6L19.2,8.6z"/>
	<path id="Caminho_4236" class="st0" d="M8.6,18.1c-1.3,0-2.2,1-2.2,2.2c0,1.3,1,2.2,2.2,2.2s2.2-1,2.2-2.2
		C10.9,19.1,9.9,18.1,8.6,18.1z M8.6,21.2c-0.5,0-0.9-0.4-0.9-0.9c0-0.5,0.4-0.9,0.9-0.9c0.5,0,0.9,0.4,0.9,0.9
		C9.6,20.8,9.2,21.2,8.6,21.2L8.6,21.2z"/>
	<path id="Caminho_4237" class="st0" d="M16.1,18.1c-1.3,0-2.2,1-2.2,2.2s1,2.2,2.2,2.2c1.3,0,2.2-1,2.2-2.2S17.4,18.1,16.1,18.1z
		 M16.1,21.2c-0.5,0-0.9-0.4-0.9-0.9c0-0.4,0.4-0.9,0.9-0.9c0.5,0,0.9,0.4,0.9,0.9C16.9,20.8,16.6,21.2,16.1,21.2L16.1,21.2z"/>
</g>
</svg>
