<?xml version="1.0" encoding="utf-8"?>
<!-- Generator: Adobe Illustrator 25.4.1, SVG Export Plug-In . SVG Version: 6.00 Build 0)  -->
<svg version="1.1" id="Camada_1" xmlns="http://www.w3.org/2000/svg" xmlns:xlink="http://www.w3.org/1999/xlink" x="0px" y="0px"
	 viewBox="0 0 22 18.1" style="enable-background:new 0 0 22 18.1;" xml:space="preserve">
<style type="text/css">
	.st0{fill:#D03837;}
</style>
<path id="Caminho_99" class="st0" d="M16.8,0c-0.7,0-1.3,0.7-1.2,1.4c0,0.2,0.1,0.5,0.2,0.7l2.3,3.1H1.3C0.6,5.1,0,5.7-0.1,6.4
	s0.5,1.3,1.2,1.4c0.1,0,0.1,0,0.2,0h19.4c0.7,0,1.3-0.6,1.3-1.3l0,0c0-0.3-0.2-0.7-0.4-0.9l-3.7-5C17.6,0.2,17.2,0,16.8,0L16.8,0z
	 M1.3,10.4c-0.7,0-1.3,0.6-1.3,1.3l0,0c0,0.3,0.2,0.7,0.4,0.9l3.7,5c0.3,0.3,0.7,0.5,1.1,0.5c0.7,0,1.3-0.7,1.2-1.4
	c0-0.2-0.1-0.5-0.2-0.7L3.9,13h16.8c0.7,0.1,1.3-0.5,1.4-1.2s-0.5-1.3-1.2-1.4c-0.1,0-0.1,0-0.2,0L1.3,10.4L1.3,10.4z"/>
</svg>
