<?xml version="1.0" encoding="utf-8"?>
<!-- Generator: Adobe Illustrator 25.4.1, SVG Export Plug-In . SVG Version: 6.00 Build 0)  -->
<svg version="1.1" id="Camada_1" xmlns="http://www.w3.org/2000/svg" xmlns:xlink="http://www.w3.org/1999/xlink" x="0px" y="0px"
	 viewBox="0 0 20 20" style="enable-background:new 0 0 20 20;" xml:space="preserve">
<style type="text/css">
	.st0{fill-rule:evenodd;clip-rule:evenodd;fill:#FFFFFF;}
</style>
<g id="Grupo_1906" transform="translate(-45 -150)">
	<g id="g3246" transform="translate(50.855 155.969)">
		<path id="path3188" class="st0" d="M8.2,1.9c0-0.3,0.1-0.8,0.3-0.9L9,1.2l0.6-0.6h0.5c0,0.8,0,1.6,0.3,2.3l-0.3,0.3
			C9.6,2.6,9,2.1,8.2,1.9z"/>
		<path id="path3190" class="st0" d="M7.2,2.7C6.1,2.7,6.9,1.5,7.1,1c0.1-0.8-0.3-1.4-0.9-1.7v-0.9C7.9-1.1,8,0,9.1-0.7v0.5
			C7.5,1.5,8.2,2.7,7.2,2.7z"/>
		<path id="path3192" class="st0" d="M2.7,0.4c1.4-0.3,2.8-0.3,4.1,0c0.1,0.3,0,0.8-0.1,1.1c-1.4-0.3-2.6-0.3-3.9,0
			C2.7,1.2,2.5,0.9,2.7,0.4z"/>
		<path id="path3194" class="st0" d="M3.7-0.5C1.7-0.2,2.1,2,3.7,2.6v1.9c-4.3-1.2-3.6-5.7,0-6V-0.5z"/>
		<path id="path3196" class="st0" d="M5.9,6.4c-0.6,0-1.2,0-1.8,0V1.5c0.6,0,1.2,0,1.8,0V6.4z"/>
		<path id="path3202" class="st0" d="M-2.4,4c1.1-0.5,1.4-1.6,2.9-2.6c0,0.5,0.1,0.9,0.3,1.4C0.2,3.7,0.2,4.5,1.1,5.5
			C0.9,5.9,0.6,6.4,0.3,6.7C-1.1,5.9-1.3,4.8-2.4,4z"/>
		<path id="path3204" class="st0" d="M2.5,7.5C2.7,7.2,3,7,3.1,6.5c1.4,0.3,2.8,0.3,4.1,0c0.1,0.3,0.1,0.6,0,0.9
			C5.8,8,4.1,8,2.5,7.5z"/>
		<path id="path3206" class="st0" d="M-0.5,7.4l0.1,0.5h0.8c0.9,0.8,2.2,1.2,3.2,1.6V8.4c-0.6,0-1.2-0.3-1.6-0.9
			C3.3,6.4,3.5,5,2.7,4.8C1.9,4.6,1.6,5.3,1,6.2C0.7,6.7,0.2,7.2-0.5,7.4z"/>
		<path id="path3208" class="st0" d="M5.9-1.6c0-0.8,0.6-0.8,0.9-0.3c0-0.9-0.9-1.1-1.4-0.8C5.4-3,5.2-3.2,5-3.3
			C4.7-3.2,4.5-3,4.4-2.8C4.1-3.2,3.1-3.2,3.1-2.1C3.4-2.4,4-2.4,4-1.6V0c0.6,0,1.4,0,1.8,0L5.9-1.6z"/>
		<path id="path3216" class="st0" d="M5.9,9.7c0,0.8,0.6,0.8,0.9,0.3c0,0.9-0.9,1.1-1.4,0.8c-0.1,0.3-0.3,0.3-0.5,0.5
			c-0.1,0-0.3-0.3-0.5-0.5C3.9,11.2,3,11.2,3,10c0.3,0.3,0.9,0.3,0.9-0.5V8.1c0.6,0,1.4,0,1.8,0L5.9,9.7z"/>
		<path id="path3218" class="st0" d="M6.1,3.3v1.8c2.3,0.8,1.8,3.4,0,3.2v1.1c2.5-0.1,3.4-1.6,3.4-3S8.2,4,6.1,3.3z"/>
		<path id="path3222" class="st0" d="M9.8,6.5c0-0.3,0-0.6-0.1-0.9l0.5-0.3l0.5,0.4C10.4,6,10.1,6.3,9.8,6.5z"/>
	</g>
</g>
</svg>
