<?xml version="1.0" encoding="utf-8"?>
<!-- Generator: Adobe Illustrator 25.4.1, SVG Export Plug-In . SVG Version: 6.00 Build 0)  -->
<svg version="1.1" id="Camada_1" xmlns="http://www.w3.org/2000/svg" xmlns:xlink="http://www.w3.org/1999/xlink" x="0px" y="0px"
	 viewBox="0 0 22.8 15.5" style="enable-background:new 0 0 22.8 15.5;" xml:space="preserve">
<style type="text/css">
	.st0{fill:#3B2427;}
</style>
<path id="Caminho_4256" class="st0" d="M0.9,0C0.4,0,0,0.4,0,0.9s0.4,0.9,0.9,0.9c0,0,0,0,0,0h20.9c0.5,0,0.9-0.4,0.9-0.9
	S22.4,0,21.9,0c0,0,0,0,0,0H0.9z M0.9,6.8C0.4,6.8,0,7.2,0,7.8s0.4,0.9,0.9,0.9c0,0,0,0,0,0h20.9c0.5,0,0.9-0.4,0.9-0.9
	s-0.4-0.9-0.9-0.9c0,0,0,0,0,0H0.9z M0.9,13.7c-0.5,0-0.9,0.4-0.9,0.9s0.4,0.9,0.9,0.9l0,0h20.9c0.5,0,0.9-0.4,0.9-0.9
	s-0.4-0.9-0.9-0.9H0.9z"/>
</svg>
