<svg xmlns="http://www.w3.org/2000/svg" width="13.998" height="16.999" viewBox="0 0 13.998 16.999">
  <path id="Exclusão_6" data-name="Exclusão 6" d="M4019-13748h0a46.809,46.809,0,0,1-3.5-3.722,24.563,24.563,0,0,1-2.406-3.347,6.755,6.755,0,0,1-1.094-3.175,6.6,6.6,0,0,1,2.05-4.777A7.086,7.086,0,0,1,4019-13765a7.083,7.083,0,0,1,4.948,1.979,6.6,6.6,0,0,1,2.05,4.777,6.755,6.755,0,0,1-1.094,3.175,24.523,24.523,0,0,1-2.405,3.347,46.809,46.809,0,0,1-3.5,3.722Zm0-12.64a2.889,2.889,0,0,0-2.936,2.832,2.89,2.89,0,0,0,2.936,2.834,2.889,2.889,0,0,0,2.934-2.834A2.888,2.888,0,0,0,4019-13760.641Z" transform="translate(-4012.001 13765)" fill="#d8b973"/>
</svg>
