<svg id="noun-soccer-1671462" xmlns="http://www.w3.org/2000/svg" width="24.743" height="33.838" viewBox="0 0 24.743 33.838">
  <path id="Caminho_4353" data-name="Caminho 4353" d="M799.21,607.209a3.28,3.28,0,1,1-3.89,2.527,3.28,3.28,0,0,1,3.89-2.527" transform="translate(-777.066 -589.988)" fill="#fff"/>
  <path id="Caminho_4354" data-name="Caminho 4354" d="M198.867,297.354c-.57-.784-1.747-1.319-4.314-2.246a28.88,28.88,0,0,1,.392-7.559,7.976,7.976,0,0,1,1.284,1.5,3.374,3.374,0,0,0,1.64,1.533c1.319.392,4.421,1,4.564,1,.071,0,.178.036.25.036a1.4,1.4,0,0,0,.25-2.781c-.036,0-2.745-.5-4.029-.891-.107-.143-.25-.357-.392-.535-.856-1.212-2.211-3.138-4.707-3.066-.464,0-2.211.036-2.318.036-3.28-.107-6.026,2.46-6.846,3.744-.143.25-.642,1-1.248,6.383a1.432,1.432,0,0,0,1.248,1.569h.143a1.393,1.393,0,0,0,1.391-1.248,42.371,42.371,0,0,1,.856-5.241,6.743,6.743,0,0,1,1.141-1.141,20.942,20.942,0,0,0,.178,7.559,18.953,18.953,0,0,0,.856,4.029c.178.606.392,1.462.428,1.676-.036.642-.891,4.029-1.676,6.81a1.629,1.629,0,0,0,1.141,2.032,1.808,1.808,0,0,0,.464.071,1.6,1.6,0,0,0,1.569-1.212c.678-2.425,1.818-6.632,1.783-7.773a11.644,11.644,0,0,0-.535-2.5c-.107-.428-.25-.963-.392-1.533.214.071.392.143.606.214,1.212.535,3.173,1.248,3.708,1.6.5.713,2.139,3.887,3.53,6.7a1.65,1.65,0,0,0,1.462.927,1.916,1.916,0,0,0,.749-.178,1.654,1.654,0,0,0,.749-2.211c-.749-1.462-3.173-6.275-3.922-7.31Z" transform="translate(-183.385 -276.78)" fill="#fff"/>
  <path id="Caminho_4355" data-name="Caminho 4355" d="M370.139,33.206A3.28,3.28,0,1,1,366.8,29.99a3.281,3.281,0,0,1,3.343,3.216" transform="translate(-358.225 -29.989)" fill="#fff"/>
</svg>
