<?xml version="1.0" encoding="utf-8"?>
<!-- Generator: Adobe Illustrator 25.4.1, SVG Export Plug-In . SVG Version: 6.00 Build 0)  -->
<svg version="1.1" id="Camada_1" xmlns="http://www.w3.org/2000/svg" xmlns:xlink="http://www.w3.org/1999/xlink" x="0px" y="0px"
	 viewBox="0 0 12.9 9.3" style="enable-background:new 0 0 12.9 9.3;" xml:space="preserve">
<style type="text/css">
	.st0{fill:#FFFFFF;}
</style>
<path id="Caminho_3297" class="st0" d="M4.9,8.6c-0.2,0-0.5-0.1-0.7-0.3L1.1,5.3C0.8,4.9,0.8,4.4,1.1,4s0.9-0.4,1.3,0c0,0,0,0,0,0
	l2.4,2.4l5.6-5.5c0.4-0.4,0.9-0.4,1.3,0c0.4,0.4,0.4,0.9,0,1.3c0,0,0,0,0,0L5.6,8.4C5.4,8.6,5.2,8.7,4.9,8.6L4.9,8.6z"/>
</svg>
