<svg xmlns="http://www.w3.org/2000/svg" xmlns:xlink="http://www.w3.org/1999/xlink" width="81.896" height="88.022" viewBox="0 0 81.896 88.022">
  <defs>
    <clipPath id="clip-path">
      <rect id="Retângulo_364" data-name="Retângulo 364" width="70.806" height="59.72" fill="none"/>
    </clipPath>
  </defs>
  <g id="Grupo_1057" data-name="Grupo 1057" transform="translate(0 65.651) rotate(-68)">
    <g id="Grupo_1056" data-name="Grupo 1056" clip-path="url(#clip-path)">
      <path id="Caminho_4287" data-name="Caminho 4287" d="M128.824,123.647a1.377,1.377,0,0,0-1.362,1.39v3.573a1.362,1.362,0,1,0,2.723,0v-3.573a1.375,1.375,0,0,0-1.362-1.39" transform="translate(-88.617 -85.965)" fill="#ed1c24"/>
      <path id="Caminho_4288" data-name="Caminho 4288" d="M128.824,149.374a1.377,1.377,0,0,0-1.362,1.39v3.573a1.362,1.362,0,1,0,2.723,0v-3.573a1.376,1.376,0,0,0-1.362-1.39" transform="translate(-88.617 -103.852)" fill="#ed1c24"/>
      <path id="Caminho_4289" data-name="Caminho 4289" d="M40.769,129.279H58.136a1.39,1.39,0,0,0,0-2.78H40.769a1.39,1.39,0,0,0,0,2.78" transform="translate(-27.398 -87.948)" fill="#ed1c24"/>
      <path id="Caminho_4290" data-name="Caminho 4290" d="M51.82,142.378H24.6a1.39,1.39,0,0,0,0,2.78H51.823a1.39,1.39,0,0,0,0-2.78Z" transform="translate(-16.157 -98.988)" fill="#ed1c24"/>
      <path id="Caminho_4291" data-name="Caminho 4291" d="M167.709,142.376h-8.933a1.39,1.39,0,0,0,0,2.78h8.936a1.39,1.39,0,0,0,0-2.78Z" transform="translate(-109.441 -98.986)" fill="#ed1c24"/>
      <path id="Caminho_4292" data-name="Caminho 4292" d="M162.91,54.33l-8.239,3.453a1.39,1.39,0,0,0,1.075,2.564l8.242-3.454a1.39,1.39,0,0,0-1.077-2.563Z" transform="translate(-106.958 -37.7)" fill="#ed1c24"/>
      <path id="Caminho_4293" data-name="Caminho 4293" d="M54.972,158.232H32.68a1.39,1.39,0,0,0,0,2.78h22.3a1.39,1.39,0,0,0,0-2.78Z" transform="translate(-21.774 -110.01)" fill="#ed1c24"/>
      <path id="Caminho_4294" data-name="Caminho 4294" d="M60.3.845A1.379,1.379,0,0,0,59.561.1a1.342,1.342,0,0,0-1.043.011L34.092,10.724.828,25.179a1.38,1.38,0,0,0-.73.759A1.424,1.424,0,0,0,.109,27l2.585,6.2V58.33a1.377,1.377,0,0,0,1.362,1.39H66.75a1.377,1.377,0,0,0,1.362-1.39v-27.1a1.377,1.377,0,0,0-1.362-1.39H64.843l5.134-2.23a1.4,1.4,0,0,0,.719-1.824Zm5.087,31.773V56.941H41.567V54.759a1.362,1.362,0,1,0-2.723,0v2.182H5.418V32.619H38.842V34.8a1.362,1.362,0,1,0,2.723,0V32.619Zm-7.5-2.78H43.352a1.379,1.379,0,0,0-.087-.656L41.9,25.894a1.35,1.35,0,0,0-1.786-.734,1.4,1.4,0,0,0-.719,1.824l1.19,2.856H30.953l5.223-2.269a1.4,1.4,0,0,0,.719-1.824,1.35,1.35,0,0,0-1.787-.734L24,29.838H18.858L29.787,25.09a1.4,1.4,0,0,0,.719-1.824,1.35,1.35,0,0,0-1.787-.734l-15.98,6.945a1.3,1.3,0,0,0-.477.361H4.252l-1.1-2.647L33.9,13.827l.839,2.01a1.348,1.348,0,0,0,1.786.734,1.4,1.4,0,0,0,.719-1.824l-.839-2.01L58.331,3.212l9.33,22.379Z" transform="translate(0 0)" fill="#ed1c24"/>
      <path id="Caminho_4295" data-name="Caminho 4295" d="M121.627,59.357a1.352,1.352,0,0,0-1.786-.734,1.4,1.4,0,0,0-.719,1.824l1.37,3.289a1.349,1.349,0,0,0,1.787.734A1.4,1.4,0,0,0,123,62.646Z" transform="translate(-82.742 -40.68)" fill="#ed1c24"/>
    </g>
  </g>
</svg>
