<svg id="Grupo_1019" data-name="Grupo 1019" xmlns="http://www.w3.org/2000/svg" xmlns:xlink="http://www.w3.org/1999/xlink" width="29.263" height="20.138" viewBox="0 0 29.263 20.138">
  <defs>
    <clipPath id="clip-path">
      <rect id="Retângulo_350" data-name="Retângulo 350" width="29.263" height="20.138" fill="none"/>
    </clipPath>
  </defs>
  <g id="Grupo_1018" data-name="Grupo 1018" clip-path="url(#clip-path)">
    <path id="Caminho_4284" data-name="Caminho 4284" d="M20.963,20.138H6.507a.614.614,0,0,1-.614-.614V15.083a.614.614,0,0,1,.614-.614H20.962a2.631,2.631,0,1,0,0-5.262H11.2v2.923a.614.614,0,0,1-.921.532L.307,6.9a.614.614,0,0,1,0-1.064L10.278.083A.614.614,0,0,1,11.2.614V3.537h9.794a8.3,8.3,0,0,1-.03,16.6" transform="translate(0 0)" fill="#ed1c24"/>
  </g>
</svg>
