<?xml version="1.0" encoding="utf-8"?>
<!-- Generator: Adobe Illustrator 25.4.1, SVG Export Plug-In . SVG Version: 6.00 Build 0)  -->
<svg version="1.1" id="Camada_1" xmlns="http://www.w3.org/2000/svg" xmlns:xlink="http://www.w3.org/1999/xlink" x="0px" y="0px"
	 viewBox="0 0 20 20" style="enable-background:new 0 0 20 20;" xml:space="preserve">
<style type="text/css">
	.st0{fill:#FFFFFF;}
</style>
<g>
	<path class="st0" d="M11.7,6.8H8.3c-0.8,0-1.5,0.7-1.5,1.5l0,0v3.4c0,0.8,0.7,1.5,1.5,1.5h3.4c0.8,0,1.5-0.7,1.5-1.5V8.3
		C13.2,7.5,12.5,6.8,11.7,6.8L11.7,6.8z M10,12c-1.1,0-2-0.9-2-2s0.9-2,2-2s2,0.9,2,2l0,0C12,11.1,11.1,12,10,12z M12.1,8.4
		c-0.3,0-0.5-0.2-0.5-0.5s0.2-0.5,0.5-0.5s0.5,0.2,0.5,0.5l0,0C12.6,8.2,12.4,8.4,12.1,8.4z"/>
	<path class="st0" d="M10,8.7c-0.7,0-1.3,0.6-1.3,1.3s0.6,1.3,1.3,1.3s1.3-0.6,1.3-1.3l0,0C11.3,9.3,10.7,8.7,10,8.7z"/>
	<path class="st0" d="M10,2.5c-4.1,0-7.5,3.4-7.5,7.5s3.4,7.5,7.5,7.5s7.5-3.4,7.5-7.5S14.1,2.5,10,2.5z M13.9,11.7
		c0,1.2-1,2.3-2.3,2.3H8.3C7.1,14,6,13,6,11.7V8.3C6,7.1,7,6,8.3,6h3.3c1.2,0,2.3,1,2.3,2.3C13.9,8.3,13.9,11.7,13.9,11.7z"/>
</g>
</svg>
