<svg xmlns="http://www.w3.org/2000/svg" width="49.538" height="104.405" viewBox="0 0 49.538 104.405">
  <path id="Caminho_4856" data-name="Caminho 4856" d="M878.375,170.391h-2.766l-1.988-4.41h-5.729V163.7h-.952a56.133,56.133,0,0,0,1.1-17.837c-.864-7.214-6.839-13.17-9.24-15.3a40.708,40.708,0,0,1,9.24-12.384h-4.279l-.851-3.059.58-2.083c3.529-.113,9.893-.825,15.15-4.186,5.376-3.438,7.908-9.255,6.586-11.106s-5.613-4.675-5.613-4.675l-18.81-.994-18.81.994s-4.291,2.824-5.613,4.675,1.209,7.668,6.586,11.106c5.257,3.361,11.622,4.073,15.151,4.186l.579,2.083-.851,3.059H851.3s-4.913,12.622-3.478,25.743,8.454,19.777,8.454,19.777h-2.2v2.283h-5.729l-1.989,4.41H843.5l-3.955,23.055h-1.484v3.033h45.85v-3.033h-1.578ZM856.08,138.726a31.856,31.856,0,0,1,1.4-5.025c1.961,3.26,5.516,10.289,4.2,16.631a41.851,41.851,0,0,1-2.6,8.268C857,153.8,854.657,146.256,856.08,138.726Z" transform="translate(-836.032 -92.074)" fill="#fff"/>
</svg>
