<svg xmlns="http://www.w3.org/2000/svg" width="36.964" height="104.404" viewBox="0 0 36.964 104.404">
  <g id="Grupo_1963" data-name="Grupo 1963" transform="translate(-621.1 -450.158)">
    <path id="Caminho_4868" data-name="Caminho 4868" d="M656.289,554.138V550.4h-.726V526.267h-1.5v-3.151h-.646a16.809,16.809,0,0,0-2.484-3.187c-.6-.629-2-1.323-2.621-2.056a24.374,24.374,0,0,1-3.987-6s-.768-5.743-.768-6.917c0-2.7.045-5.113-.475-6.592-.241-.683-1.868-.7-1.9-1.257-.012-.2,0-.592,0-.768,0-.584,1.155-.787,1.257-1.215a9.07,9.07,0,0,1,1.522-3.008,13.676,13.676,0,0,0,9.191-11.346l4.85,1.35v-6.43l-4.917,1.369A13.673,13.673,0,0,0,641.2,465.6v-.974h1.81v-1.255h-2.152a1.138,1.138,0,1,0-.047,0h-2.054c0-.01,0-.016,0-.026.219-1.295-.147-2.843.1-3.278a9.836,9.836,0,0,1,1.163-1.3,9.561,9.561,0,0,0,1.838,2.33,14.553,14.553,0,0,0,3.24,1.862c.826.37.189-.877.189-.877l-2.74-1.742-1.275-2.64a17.176,17.176,0,0,0,.363-2.7,33.654,33.654,0,0,0,3.45,2.817c.645.287,0-1.022,0-1.022l-3.406-3.083h-3.334l-1.864.768c-.41.169-1.541-.768-2.689-.768s.169.724.169.724a16.28,16.28,0,0,0,2.485,1.066,12.127,12.127,0,0,0,1.972-.654l.2,3.191a12.148,12.148,0,0,0-1.121,2.016,20.129,20.129,0,0,0,.576,2.982s.046.159.115.336h-2v1.255h2.366v.917a13.667,13.667,0,0,0-12.521,11.77l-4.882-1.359v6.43l4.882-1.359a13.679,13.679,0,0,0,9.188,11.1,9.057,9.057,0,0,1,1.514,3c.1.429,1.257.631,1.257,1.215,0,.176.012.566,0,.768-.031.559-1.659.574-1.9,1.257-.52,1.479-.475,3.895-.475,6.592,0,1.173-.768,6.917-.768,6.917a24.393,24.393,0,0,1-3.987,6c-.625.733-2.026,1.427-2.621,2.056a16.812,16.812,0,0,0-2.484,3.187h-.624v3.151H623.6V550.4h-.725v3.739H621.1v1.807h36.964v-1.807Zm-16.707-78.882a88.114,88.114,0,0,1,10.32.909h-20.64A88.129,88.129,0,0,1,639.582,475.256Zm-10.32,6.633H649.9a58.977,58.977,0,0,1-20.64,0Z" transform="translate(0 -1.383)" fill="#fff"/>
    <path id="Caminho_4869" data-name="Caminho 4869" d="M652.631,451.243a1.085,1.085,0,1,0-1.085,1.085A1.085,1.085,0,0,0,652.631,451.243Z" transform="translate(-11.431 0)" fill="#fff"/>
  </g>
</svg>
