<svg xmlns="http://www.w3.org/2000/svg" width="46.053" height="104.405" viewBox="0 0 46.053 104.405">
  <g id="Grupo_1960" data-name="Grupo 1960" transform="translate(-1153.974 -92.074)">
    <rect id="Retângulo_834" data-name="Retângulo 834" width="0.818" height="82.104" transform="translate(1176.592 97.134)" fill="#fff"/>
    <ellipse id="Elipse_330" data-name="Elipse 330" cx="3.511" cy="3.701" rx="3.511" ry="3.701" transform="translate(1154.893 93.433)" fill="#fff"/>
    <ellipse id="Elipse_331" data-name="Elipse 331" cx="3.511" cy="3.701" rx="3.511" ry="3.701" transform="translate(1164.382 93.433)" fill="#fff"/>
    <ellipse id="Elipse_332" data-name="Elipse 332" cx="4.801" cy="5.06" rx="4.801" ry="5.06" transform="translate(1172.199 92.074)" fill="#fff"/>
    <ellipse id="Elipse_333" data-name="Elipse 333" cx="3.511" cy="3.701" rx="3.511" ry="3.701" transform="translate(1182.657 93.433)" fill="#fff"/>
    <ellipse id="Elipse_334" data-name="Elipse 334" cx="3.511" cy="3.701" rx="3.511" ry="3.701" transform="translate(1192.138 93.433)" fill="#fff"/>
    <ellipse id="Elipse_335" data-name="Elipse 335" cx="2.706" cy="2.852" rx="2.706" ry="2.852" transform="translate(1155.698 106.042)" fill="#fff"/>
    <ellipse id="Elipse_336" data-name="Elipse 336" cx="2.706" cy="2.852" rx="2.706" ry="2.852" transform="translate(1165.187 106.042)" fill="#fff"/>
    <ellipse id="Elipse_337" data-name="Elipse 337" cx="2.706" cy="2.852" rx="2.706" ry="2.852" transform="translate(1174.294 106.042)" fill="#fff"/>
    <ellipse id="Elipse_338" data-name="Elipse 338" cx="2.706" cy="2.852" rx="2.706" ry="2.852" transform="translate(1183.454 106.042)" fill="#fff"/>
    <ellipse id="Elipse_339" data-name="Elipse 339" cx="2.706" cy="2.852" rx="2.706" ry="2.852" transform="translate(1192.943 106.042)" fill="#fff"/>
    <rect id="Retângulo_835" data-name="Retângulo 835" width="0.818" height="82.104" transform="translate(1158.405 97.134)" fill="#fff"/>
    <rect id="Retângulo_836" data-name="Retângulo 836" width="0.818" height="82.104" transform="translate(1167.295 97.134)" fill="#fff"/>
    <rect id="Retângulo_837" data-name="Retângulo 837" width="0.818" height="82.104" transform="translate(1185.76 97.134)" fill="#fff"/>
    <rect id="Retângulo_838" data-name="Retângulo 838" width="0.818" height="82.104" transform="translate(1195.082 97.134)" fill="#fff"/>
    <ellipse id="Elipse_340" data-name="Elipse 340" cx="2.706" cy="2.852" rx="2.706" ry="2.852" transform="translate(1155.698 116.177)" fill="#fff"/>
    <ellipse id="Elipse_341" data-name="Elipse 341" cx="2.706" cy="2.852" rx="2.706" ry="2.852" transform="translate(1165.187 116.177)" fill="#fff"/>
    <ellipse id="Elipse_342" data-name="Elipse 342" cx="2.706" cy="2.852" rx="2.706" ry="2.852" transform="translate(1174.294 116.177)" fill="#fff"/>
    <ellipse id="Elipse_343" data-name="Elipse 343" cx="2.706" cy="2.852" rx="2.706" ry="2.852" transform="translate(1183.454 116.177)" fill="#fff"/>
    <ellipse id="Elipse_344" data-name="Elipse 344" cx="2.706" cy="2.852" rx="2.706" ry="2.852" transform="translate(1192.943 116.177)" fill="#fff"/>
    <ellipse id="Elipse_345" data-name="Elipse 345" cx="2.706" cy="2.852" rx="2.706" ry="2.852" transform="translate(1155.421 125.636)" fill="#fff"/>
    <ellipse id="Elipse_346" data-name="Elipse 346" cx="2.706" cy="2.852" rx="2.706" ry="2.852" transform="translate(1164.909 125.636)" fill="#fff"/>
    <ellipse id="Elipse_347" data-name="Elipse 347" cx="2.706" cy="2.852" rx="2.706" ry="2.852" transform="translate(1174.294 125.636)" fill="#fff"/>
    <ellipse id="Elipse_348" data-name="Elipse 348" cx="2.706" cy="2.852" rx="2.706" ry="2.852" transform="translate(1192.665 125.636)" fill="#fff"/>
    <rect id="Retângulo_839" data-name="Retângulo 839" width="0.862" height="37.495" transform="translate(1195.748 128.057) rotate(90)" fill="#fff"/>
    <rect id="Retângulo_840" data-name="Retângulo 840" width="0.862" height="37.495" transform="translate(1195.748 118.599) rotate(90)" fill="#fff"/>
    <rect id="Retângulo_841" data-name="Retângulo 841" width="0.862" height="37.495" transform="translate(1195.748 108.464) rotate(90)" fill="#fff"/>
    <rect id="Retângulo_842" data-name="Retângulo 842" width="0.862" height="37.495" transform="translate(1195.748 96.664) rotate(90)" fill="#fff"/>
    <rect id="Retângulo_843" data-name="Retângulo 843" width="0.862" height="19.282" transform="translate(1186.641 136.859) rotate(90)" fill="#fff"/>
    <rect id="Retângulo_844" data-name="Retângulo 844" width="0.862" height="19.282" transform="translate(1186.641 171.012) rotate(90)" fill="#fff"/>
    <ellipse id="Elipse_349" data-name="Elipse 349" cx="1.79" cy="1.887" rx="1.79" ry="1.887" transform="translate(1165.825 135.403)" fill="#fff"/>
    <ellipse id="Elipse_350" data-name="Elipse 350" cx="1.79" cy="1.887" rx="1.79" ry="1.887" transform="translate(1175.21 135.403)" fill="#fff"/>
    <ellipse id="Elipse_351" data-name="Elipse 351" cx="1.79" cy="1.887" rx="1.79" ry="1.887" transform="translate(1184.37 135.403)" fill="#fff"/>
    <ellipse id="Elipse_352" data-name="Elipse 352" cx="1.79" cy="1.887" rx="1.79" ry="1.887" transform="translate(1165.874 169.556)" fill="#fff"/>
    <ellipse id="Elipse_353" data-name="Elipse 353" cx="1.79" cy="1.887" rx="1.79" ry="1.887" transform="translate(1175.21 169.556)" fill="#fff"/>
    <ellipse id="Elipse_354" data-name="Elipse 354" cx="1.79" cy="1.887" rx="1.79" ry="1.887" transform="translate(1184.419 169.556)" fill="#fff"/>
    <ellipse id="Elipse_355" data-name="Elipse 355" cx="1.79" cy="1.887" rx="1.79" ry="1.887" transform="translate(1175.21 161.074)" fill="#fff"/>
    <ellipse id="Elipse_356" data-name="Elipse 356" cx="1.79" cy="1.887" rx="1.79" ry="1.887" transform="translate(1175.21 152.48)" fill="#fff"/>
    <ellipse id="Elipse_357" data-name="Elipse 357" cx="1.79" cy="1.887" rx="1.79" ry="1.887" transform="translate(1175.21 144.11)" fill="#fff"/>
    <ellipse id="Elipse_358" data-name="Elipse 358" cx="2.706" cy="2.852" rx="2.706" ry="2.852" transform="translate(1156.081 177.456)" fill="#fff"/>
    <ellipse id="Elipse_359" data-name="Elipse 359" cx="2.706" cy="2.852" rx="2.706" ry="2.852" transform="translate(1165.569 177.456)" fill="#fff"/>
    <ellipse id="Elipse_360" data-name="Elipse 360" cx="2.706" cy="2.852" rx="2.706" ry="2.852" transform="translate(1174.954 177.456)" fill="#fff"/>
    <ellipse id="Elipse_361" data-name="Elipse 361" cx="2.706" cy="2.852" rx="2.706" ry="2.852" transform="translate(1193.325 177.456)" fill="#fff"/>
    <ellipse id="Elipse_362" data-name="Elipse 362" cx="2.706" cy="2.852" rx="2.706" ry="2.852" transform="translate(1183.454 177.456)" fill="#fff"/>
    <ellipse id="Elipse_363" data-name="Elipse 363" cx="2.706" cy="2.852" rx="2.706" ry="2.852" transform="translate(1183.454 125.636)" fill="#fff"/>
    <rect id="Retângulo_845" data-name="Retângulo 845" width="43.927" height="2.747" transform="translate(1155.037 182.019)" fill="#fff"/>
    <rect id="Retângulo_846" data-name="Retângulo 846" width="46.053" height="11.713" transform="translate(1153.974 184.765)" fill="#fff"/>
  </g>
</svg>
