<svg xmlns="http://www.w3.org/2000/svg" width="37.511" height="104.405" viewBox="0 0 37.511 104.405">
  <path id="Caminho_4855" data-name="Caminho 4855" d="M245.864,180.294l-7.5,16.185h37.511l-7.5-16.185h0a130.908,130.908,0,0,1-4.689-35.555c0-20.6,11.369-39.13,11.369-39.13H272.8s-.4.705-1.038,1.98c.016-.281.026-.563.026-.848a14.669,14.669,0,0,0-29.338,0q0,.388.02.77c-.618-1.226-1-1.9-1-1.9H239.22s11.369,18.535,11.369,39.13a130.916,130.916,0,0,1-4.689,35.555Zm21.761-63.321c-2.875,7.462-5.877,17.7-5.877,27.929a138.021,138.021,0,0,0,4.689,35.393h-4.314A224.5,224.5,0,0,1,259.31,144.9a120.193,120.193,0,0,1,2.619-24.3A14.673,14.673,0,0,0,267.625,116.973ZM252.52,144.9c0-10.2-2.986-20.414-5.854-27.87a14.67,14.67,0,0,0,5.625,3.563,120.241,120.241,0,0,1,2.634,24.377,225.43,225.43,0,0,1-2.8,35.323h-4.293A138.022,138.022,0,0,0,252.52,144.9Z" transform="translate(-238.362 -92.074)" fill="#fff"/>
</svg>
