<?xml version="1.0" encoding="utf-8"?>
<!-- Generator: Adobe Illustrator 25.4.1, SVG Export Plug-In . SVG Version: 6.00 Build 0)  -->
<svg version="1.1" id="Camada_1" xmlns="http://www.w3.org/2000/svg" xmlns:xlink="http://www.w3.org/1999/xlink" x="0px" y="0px"
	 viewBox="0 0 43.3 104.4" style="enable-background:new 0 0 43.3 104.4;" xml:space="preserve">
<style type="text/css">
	.st0{fill:#FFFFFF;}
</style>
<g>
	<rect x="0.3" y="100.8" class="st0" width="42.8" height="3.6"/>
	<rect x="3.6" y="80.9" class="st0" width="35.5" height="19.9"/>
	<rect x="18.2" y="36.8" class="st0" width="7.2" height="46.4"/>
	<polygon class="st0" points="14.5,74 9.5,80.9 9.5,35.2 14.5,41.9 	"/>
	<polygon class="st0" points="16.2,74 12.8,80.9 12.8,35.2 16.2,41.9 	"/>
	<rect x="14.1" y="31.8" class="st0" width="15.6" height="1.4"/>
	<path class="st0" d="M21.7,37.1h-3.6c0,0-1.3-1.2-2.1-2c-0.8-0.8-1.1-2.3-1.1-2.3h6.8V37.1z"/>
	<circle class="st0" cx="21.9" cy="16.8" r="16.8"/>
	<polygon class="st0" points="29.2,73.4 34.1,80.4 34.1,34.6 29.2,41.4 	"/>
	<polygon class="st0" points="27.5,73.4 30.8,80.4 30.8,34.6 27.5,41.4 	"/>
	
		<rect x="14.9" y="43.8" transform="matrix(-1 -1.224647e-16 1.224647e-16 -1 43.6349 114.3464)" class="st0" width="13.8" height="26.8"/>
	<path class="st0" d="M21.7,37.3h3.6c0,0,1.3-1.2,2.1-2c0.8-0.8,1.1-2.3,1.1-2.3h-6.8V37.3z"/>
</g>
</svg>
