<svg xmlns="http://www.w3.org/2000/svg" width="33.618" height="104.403" viewBox="0 0 33.618 104.403">
  <g id="Grupo_1962" data-name="Grupo 1962" transform="translate(-1107.54 -454.518)">
    <path id="Caminho_4864" data-name="Caminho 4864" d="M1108.606,482.415v5.306h12.036a16.777,16.777,0,0,0,7.414,0h12.036v-5.306h-3.115a16.809,16.809,0,1,0-25.255,0Z" fill="#fff"/>
    <path id="Caminho_4865" data-name="Caminho 4865" d="M1148.416,507.056l-5.455,31.93,2.045-31.93H1139.7l-2.842,44.36h5.874l7.579-44.36Z" transform="translate(-10.788 -19.332)" fill="#fff"/>
    <path id="Caminho_4866" data-name="Caminho 4866" d="M1110.515,507.056l7.579,44.36h5.874l-2.842-44.36h-5.306l2.045,31.93-5.456-31.93Z" transform="translate(-1.095 -19.332)" fill="#fff"/>
    <rect id="Retângulo_849" data-name="Retângulo 849" width="18.996" height="2.653" transform="translate(1114.97 532.087)" fill="#fff"/>
    <path id="Caminho_4867" data-name="Caminho 4867" d="M1136.692,584.1v-2.653h-23.716V584.1h-2.147a80.9,80.9,0,0,0-1.705,10.763,77.788,77.788,0,0,0-.568,10.763h32.557L1138.84,584.1Z" transform="translate(-0.366 -46.706)" fill="#fff"/>
  </g>
</svg>
