<svg xmlns="http://www.w3.org/2000/svg" width="48.197" height="104.402" viewBox="0 0 48.197 104.402">
  <g id="Grupo_1961" data-name="Grupo 1961" transform="translate(-1459.523 -92.074)">
    <path id="Caminho_4863" data-name="Caminho 4863" d="M1505.624,120.09h2.1v-5.256H1504.7c.04-.534.068-1.072.068-1.616a21.144,21.144,0,0,0-42.289,0c0,.544.027,1.082.068,1.616h-3.022v5.256h2.1s7.635,12.053,11.41,22.4c5.227,14.323-1.98,32.225-1.98,32.225h-6.557v17.268h-.012l-4.191,4.5h46.55l-4.191-4.5h.051V174.71h-6.5s-7.207-17.9-1.98-32.225C1497.989,132.142,1505.624,120.09,1505.624,120.09Zm-22-8.719a141.009,141.009,0,0,1,16.519,1.456H1467.1A141,141,0,0,1,1483.621,111.37Zm0,10.618h16.519a141.01,141.01,0,0,1-16.519,1.456,141,141,0,0,1-16.518-1.456Zm-6.492,52.722a83.846,83.846,0,0,0,1.385-20.316,5.689,5.689,0,0,0,10.215,0,83.839,83.839,0,0,0,1.385,20.316Zm1.657-22.831a4.834,4.834,0,1,1,4.835,4.834A4.834,4.834,0,0,1,1478.787,151.879Zm10.333-1.477a5.691,5.691,0,0,0-11,0,37.579,37.579,0,0,0-3.427-11.879c-1.625-3.221-3.387-6.5-4.981-9.383a21.122,21.122,0,0,0,27.811,0c-1.594,2.884-3.356,6.162-4.981,9.384A37.582,37.582,0,0,0,1489.12,150.4Z" fill="#fff"/>
    <circle id="Elipse_364" data-name="Elipse 364" cx="3.154" cy="3.154" r="3.154" transform="matrix(0.957, -0.29, 0.29, 0.957, 1479.689, 149.774)" fill="#fff"/>
  </g>
</svg>
