<svg xmlns="http://www.w3.org/2000/svg" width="39.569" height="104.405" viewBox="0 0 39.569 104.405">
  <path id="Caminho_4857" data-name="Caminho 4857" d="M1340.336,460.124l3.936-5.606H1304.7l3.936,5.606s-.24,9.9,5.456,15.6c.257.257.512.5.765.73l-2.494,10.084h-.025l0,.082,0,.018h.005l1.872,33.942H1312.4v2h.6l-3.129,34.881h-.756v1.464h30.757v-1.464h-.755l-3.129-34.881h.6v-2h-1.474l2.5-33.942h.008l-.006-.023.006-.078h-.025l-2.641-10.682h-.2l.137-.133C1340.576,470.023,1340.336,460.124,1340.336,460.124ZM1324.8,487.778l-3.212-7.3a8.158,8.158,0,0,0,2.9.4,8.886,8.886,0,0,0,3.625-.63Zm-7.582-9.438-2.611,5.5,1.372-6.423Q1316.61,477.923,1317.216,478.34Zm-2.17,8.194h-.066l3.057-7.66a15.931,15.931,0,0,0,1.95,1.022l3.149,7.89-1.564,32.791h-2.145Zm12.984,34.043-1.564-32.791h-.006l3.293-8.249a17.265,17.265,0,0,0,1.962-1.165l3.258,8.163h-.066l-5.006,34.043Zm7.317-36.741-2.86-6.022c.437-.331.883-.695,1.34-1.1Z" transform="translate(-1304.704 -454.518)" fill="#fff"/>
</svg>
