<?xml version="1.0" encoding="utf-8"?>
<!-- Generator: Adobe Illustrator 25.4.1, SVG Export Plug-In . SVG Version: 6.00 Build 0)  -->
<svg version="1.1" id="Camada_1" xmlns="http://www.w3.org/2000/svg" xmlns:xlink="http://www.w3.org/1999/xlink" x="0px" y="0px"
	 viewBox="0 0 467.6 467.6" style="enable-background:new 0 0 467.6 467.6;" xml:space="preserve">
<style type="text/css">
	.st0{fill:#D03837;}
</style>
<path id="etAqmIEXiSc16" class="st0" d="M233.8,467.6C104.6,467.5-0.1,362.7,0,233.5c0-15.7,1.6-31.4,4.8-46.7
	c6.1-29.9,18.1-58.3,35.2-83.6C56.8,78.2,78.2,56.8,103.1,40C195.9-22.7,320-10.7,399.2,68.5c21.3,21.3,38.3,46.6,50.1,74.3
	c6,14.1,10.5,28.8,13.6,43.9c5,24.7,6.1,50,3.1,75l-16.1-9.2c0.5-6.1,0.8-12.4,0.8-18.6C450.6,114,353.3,17,233.5,17.1
	C146.5,17.2,68,69.3,34,149.4c-46.7,110.3,4.9,237.5,115.2,284.2c61.8,26.2,132.3,22.2,190.8-10.7l16.9,9.7
	C319.9,455.6,277.3,467.7,233.8,467.6L233.8,467.6z"/>
</svg>
