<?xml version="1.0" encoding="utf-8"?>
<!-- Generator: Adobe Illustrator 25.4.1, SVG Export Plug-In . SVG Version: 6.00 Build 0)  -->
<svg version="1.1" id="Camada_1" xmlns="http://www.w3.org/2000/svg" xmlns:xlink="http://www.w3.org/1999/xlink" x="0px" y="0px"
	 viewBox="0 0 261 284.4" style="enable-background:new 0 0 261 284.4;" xml:space="preserve">
<style type="text/css">
	.st0{fill-rule:evenodd;clip-rule:evenodd;fill:#FFFFFF;}
</style>
<g id="Camada_2_00000163069102509412765670000000750921068897913004_">
	<path class="st0" d="M187.1,99.6c1.1-6.5,3.4-12.6,6.8-18.2l9.4,4.2l8.5-11.5l8.5,2.6c0.1,15.2-0.3,30.8,5.3,41.3l-4.3,5.3
		C211.6,113.3,199.9,105.2,187.1,99.6z"/>
	<path class="st0" d="M171.2,115.3c-18.8-0.1-5.2-22.1-2.4-30.5c2.5-7.5-1.3-22.8-15.7-28.2V37.3c28.4,8.2,31.6,27.1,47.9,18.5v9.5
		C175.6,91.5,186.7,115.2,171.2,115.3z"/>
	<path class="st0" d="M95.5,73.2c22.4-5.8,45.9-6.1,68.4-0.9c2.8,8.2,0.4,13.8-2.3,19.3c-21.4-3.9-43.4-3-64.4,2.6
		C93.2,88,92.5,80.1,95.5,73.2z"/>
	<path class="st0" d="M112,56.6c-33.5,5.7-25.9,45.3,0,56v34.6C38.5,126,51.8,46,112,38V56.6z"/>
	<path class="st0" d="M148.2,180.8c-10.3,1.2-20.6,1.2-30.9,0V94.4c10.3-1.2,20.6-1.2,30.9,0V180.8z"/>
	<path class="st0" d="M9,137.7c17.9-8.7,21.9-27.7,47.9-46.8c0.8,8.9,1.8,17.5,5.5,24c-11.1,16-10.3,31.1,6.2,49.5
		c-3.2,7.6-7.8,14.4-13.6,20.3C31.8,170.9,26.5,152.9,9,137.7z"/>
	<path class="st0" d="M92.2,201.6c4.8-5.5,8.6-11.8,11.3-18.5c17.6,3.7,38.1,5.2,68.9-1c3.2,6.4,2,12.5,0.9,18.5
		C155.1,207.1,121.1,208.6,92.2,201.6z"/>
	<path class="st0" d="M41.4,198.7l2.2,9.8l13.6,0.9c15.6,11.1,32.4,21.5,55.1,28.2v-19.1c-10.6-1.6-20.1-7.6-26.2-16.4
		c17.6-18.9,21.1-42.6,10-47.4c-14.8-6.4-21.4,8.7-29.8,22.3C60.8,186.8,52,194.5,41.4,198.7z"/>
	<path class="st0" d="M148.3,36.8c0.1-14.6,11.3-12.9,16.6-7.6c-0.7-18.4-15.6-20.5-22.8-13.9c-2.2-3.6-5.4-6.5-9.2-8.3
		c-3.8,1.8-7.1,4.6-9.4,8.1c-6.8-6.2-22.1-4.6-22.8,13.8c5.7-4.9,16.4-6.6,16.4,7.9l0.1,28c10.4-0.8,20.8-0.8,31.2-0.1L148.3,36.8z"
		/>
	<path class="st0" d="M148.3,238.2c0.1,14.6,11.3,12.9,16.6,7.6c-0.7,18.4-15.6,20.5-22.8,13.9c-2.2,3.6-5.4,6.5-9.2,8.3
		c-3.8-1.8-7.1-4.6-9.4-8.1c-6.7,6.2-22.1,4.6-22.8-13.8c5.7,4.9,16.4,6.6,16.4-8l0.1-28c10.4,0.8,20.8,0.8,31.2,0.1L148.3,238.2z"
		/>
	<path class="st0" d="M152.8,126.5v33.1c37.9,12.6,31.9,59.8,0.5,58.6v19.1c40.6-4,56.3-29.2,56.5-53.7
		C210.2,155.5,187.9,135.6,152.8,126.5z"/>
	<path class="st0" d="M214.1,182.4c0.4-5.7-0.4-11.3-2.4-16.6l8.7-5.8l9.8,8.1C225.9,173.9,220.4,178.8,214.1,182.4z"/>
</g>
</svg>
