<svg id="Camada_1" data-name="Camada 1" xmlns="http://www.w3.org/2000/svg" viewBox="0 0 467.65 467.64"><defs><style>.cls-1{fill:#fff;}</style></defs><path id="etAqmIEXiSc16" class="cls-1" d="M249.92,484A234,234,0,0,1,20.86,203.07a232.68,232.68,0,0,1,35.19-83.61A234.81,234.81,0,0,1,119.2,56.31,233.71,233.71,0,0,1,415.26,84.85a234.35,234.35,0,0,1,50.11,74.33A232.18,232.18,0,0,1,479,203.07a235.31,235.31,0,0,1,3.11,75L466,268.82c.51-6.13.78-12.4.78-18.63a216.92,216.92,0,0,0-416.66-84.4,216.83,216.83,0,0,0,306,273.48L373,449a232.65,232.65,0,0,1-123.11,35Z" transform="translate(-16.11 -16.36)"/></svg>