<?xml version="1.0" encoding="utf-8"?>
<!-- Generator: Adobe Illustrator 25.4.1, SVG Export Plug-In . SVG Version: 6.00 Build 0)  -->
<svg version="1.1" id="Camada_1" xmlns="http://www.w3.org/2000/svg" xmlns:xlink="http://www.w3.org/1999/xlink" x="0px" y="0px"
	 viewBox="0 0 22.4 26.6" style="enable-background:new 0 0 22.4 26.6;" xml:space="preserve">
<style type="text/css">
	.st0{fill:#DC0714;}
</style>
<g>
	<path class="st0" d="M18,15.4L18,15.4C17.2,14.5,16,14,14.9,14H7.5c-1.2,0-2.4,0.5-3.2,1.4c-0.8,0.9-1.3,2.1-1.3,3.3
		c0,1.1,0.5,2.2,1.3,3.2c0.9,0.9,2.1,1.4,3.2,1.4h7.4c2.5,0,4.6-2.1,4.6-4.6C19.5,17.5,19,16.4,18,15.4z M7.5,15.9h7.4
		c1.6,0,2.7,1.2,2.7,2.7c0,0.9-0.5,1.6-0.7,2c-0.5,0.5-1.1,0.7-1.9,0.7H7.5c-1.6,0-2.7-1.2-2.7-2.7C4.8,17.2,6,15.9,7.5,15.9z"/>
	<path class="st0" d="M11.1,13.2c2.7,0,5-2.2,5-5s-2.2-5-5-5c-1.3,0-2.6,0.5-3.5,1.5C6.7,5.6,6.2,6.9,6.2,8.2
		C6.2,11,8.4,13.2,11.1,13.2z M8,8.2c0-1.8,1.3-3.1,3.1-3.1c0.9,0,1.6,0.3,2.2,0.9c0.5,0.6,0.9,1.4,0.9,2.2c0,1.6-1.4,3.1-3.1,3.1
		C9.4,11.3,8,10,8,8.2z"/>
</g>
</svg>
