<?xml version="1.0" encoding="utf-8"?>
<!-- Generator: Adobe Illustrator 25.4.1, SVG Export Plug-In . SVG Version: 6.00 Build 0)  -->
<svg version="1.1" id="Camada_1" xmlns="http://www.w3.org/2000/svg" xmlns:xlink="http://www.w3.org/1999/xlink" x="0px" y="0px"
	 viewBox="0 0 20 20" style="enable-background:new 0 0 20 20;" xml:space="preserve">
<style type="text/css">
	.st0{fill:#DC0714;}
</style>
<path class="st0" d="M10,2.5c-4.1,0-7.5,3.4-7.5,7.5s3.4,7.5,7.5,7.5s7.5-3.4,7.5-7.5S14.1,2.5,10,2.5z M13.3,8.3
	c0,0.6-0.1,3.4-2.7,4.6s-4.7-0.3-4.7-0.3c1.5,0.1,2.5-0.7,2.5-0.7c-1.2-0.1-1.6-1.2-1.6-1.2c0.4,0.1,0.7,0,0.7,0
	C6.2,10.3,6.2,9,6.2,9c0.4,0.2,0.7,0.2,0.7,0.2C5.7,8.3,6.5,7,6.5,7C7.9,8.7,10,8.7,10,8.7c0-0.1,0-0.3,0-0.4c0-1.1,1-1.7,1.7-1.7
	s1.2,0.5,1.2,0.5c0.5,0,1.1-0.4,1.1-0.4c-0.2,0.7-0.7,0.9-0.7,0.9c0.4,0,0.9-0.3,0.9-0.3C13.9,7.8,13.3,8.3,13.3,8.3z"/>
</svg>
