<?xml version="1.0" encoding="utf-8"?>
<!-- Generator: Adobe Illustrator 25.4.1, SVG Export Plug-In . SVG Version: 6.00 Build 0)  -->
<svg version="1.1" id="Camada_1" xmlns="http://www.w3.org/2000/svg" xmlns:xlink="http://www.w3.org/1999/xlink" x="0px" y="0px"
	 viewBox="0 0 25 25" style="enable-background:new 0 0 25 25;" xml:space="preserve">
<style type="text/css">
	.st0{fill:#DC0714;}
</style>
<g>
	<path class="st0" d="M20.8,4.1c-2.2-2.2-5.2-3.4-8.3-3.4C9.4,0.7,6.3,2,4.1,4.1s-3.4,5.2-3.4,8.4c0,3.1,1.3,6.2,3.4,8.4
		c2.2,2.2,5.2,3.4,8.4,3.4c3.1,0,6.2-1.3,8.4-3.4s3.4-5.2,3.4-8.4C24.3,9.2,23.1,6.3,20.8,4.1z M12.5,21.9c-2.5,0-4.9-1-6.7-2.7
		c-1.8-1.8-2.7-4.1-2.7-6.7c0-2.5,1-4.9,2.7-6.7c1.8-1.8,4.1-2.7,6.7-2.7c2.5,0,4.9,1,6.7,2.7c1.8,1.8,2.7,4.1,2.7,6.7
		c0,2.5-1,4.9-2.7,6.7C17.4,20.9,15,21.9,12.5,21.9z"/>
	<path class="st0" d="M13.6,12.4V6.7c0-0.5-0.3-0.9-0.6-1.1c-0.4-0.3-0.9-0.3-1.3,0c-0.4,0.3-0.6,0.6-0.6,1.1V13
		c0,0.3,0.1,0.7,0.4,0.9l3.1,3.1c0.2,0.2,0.5,0.3,0.8,0.3c0.1,0,0.2,0,0.4-0.1c0.4-0.1,0.7-0.4,0.8-0.8c0.1-0.4,0-0.9-0.3-1.2
		L13.6,12.4z"/>
</g>
</svg>
