<?xml version="1.0" encoding="utf-8"?>
<!-- Generator: Adobe Illustrator 25.4.1, SVG Export Plug-In . SVG Version: 6.00 Build 0)  -->
<svg version="1.1" id="Camada_1" xmlns="http://www.w3.org/2000/svg" xmlns:xlink="http://www.w3.org/1999/xlink" x="0px" y="0px"
	 viewBox="0 0 32.7 45" style="enable-background:new 0 0 32.7 45;" xml:space="preserve">
<style type="text/css">
	.st0{fill:#DC0714;}
</style>
<path class="st0" d="M1,20.1l6.9,6.4l-1.9,9.3l2.4,1.7l7.8-4.7l7.8,4.7l2.4-1.7l-1.9-9.3l6.9-6.4l-1.1-2.8l-9.2-0.9l-3.7-8.8h-3
	l-3.7,8.8l-9.2,0.9L1,20.1z M21.4,24.7L21,26l1.4,6.2L17.1,29l-1.5,0l-5.2,3.2l1.3-6.2l-0.4-1.3l-4.7-4.3l6.2-0.8l1.3-0.9l2.4-5.6
	l2.5,5.6l1.3,0.9l6.2,0.7L21.4,24.7z"/>
</svg>