<?xml version="1.0" encoding="utf-8"?>
<!-- Generator: Adobe Illustrator 25.4.1, SVG Export Plug-In . SVG Version: 6.00 Build 0)  -->
<svg version="1.1" id="Camada_1" xmlns="http://www.w3.org/2000/svg" xmlns:xlink="http://www.w3.org/1999/xlink" x="0px" y="0px"
	 viewBox="0 0 20 20" style="enable-background:new 0 0 20 20;" xml:space="preserve">
<style type="text/css">
	.st0{fill:#DC0714;}
</style>
<path class="st0" d="M10,2.5c-4.1,0-7.5,3.4-7.5,7.5s3.4,7.5,7.5,7.5s7.5-3.4,7.5-7.5S14.1,2.5,10,2.5z M13.8,9.3
	c-0.8,0-1.6-0.3-2.2-0.7v3c0,1.5-1.2,2.7-2.7,2.7s-2.7-1.2-2.7-2.7s1.2-2.7,2.7-2.7c0.1,0,0.2,0,0.4,0v1.5c-0.7-0.2-1.4,0.2-1.6,0.9
	s0.2,1.4,0.9,1.6c0.7,0.2,1.4-0.2,1.6-0.9c0-0.1,0.1-0.2,0.1-0.4V5.7h1.5c0,1.2,0.9,2.1,2.1,2.1l0,0L13.8,9.3z"/>
</svg>
