<svg id="Grupo_1934" data-name="Grupo 1934" xmlns="http://www.w3.org/2000/svg" width="45.511" height="52.552" viewBox="0 0 45.511 52.552">
  <rect id="Retângulo_641" data-name="Retângulo 641" width="45.511" height="52.552" rx="4.164" transform="translate(0 0)" fill="#d8b973"/>
  <g id="Grupo_1913" data-name="Grupo 1913" transform="translate(5.008 4.601)">
    <path id="Caminho_4825" data-name="Caminho 4825" d="M445.956,306.668h15.291v17.079H445.956Z" transform="translate(-445.956 -280.397)" fill="#fff"/>
    <path id="Caminho_4826" data-name="Caminho 4826" d="M456.553,292.051l.163.252h.659v-2.437h-.659l-.163.252a.659.659,0,0,1-.543.287h-.536v1.353h.536A.667.667,0,0,1,456.553,292.051Z" transform="translate(-443.221 -285.225)" fill="#fff"/>
    <path id="Caminho_4827" data-name="Caminho 4827" d="M447.666,292.051a.668.668,0,0,1,.545-.292h.534v-1.353h-.534a.66.66,0,0,1-.545-.287l-.163-.252h-.677V292.3h.677Z" transform="translate(-445.706 -285.225)" fill="#fff"/>
    <path id="Caminho_4828" data-name="Caminho 4828" d="M459.842,309.171a.7.7,0,0,0-.7-.628l-.309-.766h0a.652.652,0,0,0-.376-.367l-2.328-.884h0a1,1,0,0,1-.427-.3.988.988,0,0,1-.214-.478,67.052,67.052,0,0,1-.57-7.918h-.443l-.158-1.393a4.277,4.277,0,0,0-.24-8.4v-.385a.653.653,0,0,1,.292-.545l.234-.169v-.672h-2.42v.672l.252.169a.653.653,0,0,1,.292.545v.385a4.277,4.277,0,0,0-.239,8.4l-.164,1.38h-.442a67.583,67.583,0,0,1-.57,7.919.995.995,0,0,1-.628.792l-2.328.884h0a.652.652,0,0,0-.376.367l-.309.766a.693.693,0,0,0-.7.628l-.336,2.906h13.509Z" transform="translate(-445.759 -286.261)" fill="#fff"/>
  </g>
  <path id="Caminho_4829" data-name="Caminho 4829" d="M452.1,319.911a7.52,7.52,0,0,1-2.783-3.251,13.349,13.349,0,0,1,0-10.165,7.541,7.541,0,0,1,2.783-3.253,7.87,7.87,0,0,1,8.1,0,7.533,7.533,0,0,1,2.783,3.253,13.349,13.349,0,0,1,0,10.165,7.511,7.511,0,0,1-2.783,3.251,7.855,7.855,0,0,1-8.1,0Zm6.675-3.892a10.83,10.83,0,0,0,0-8.883,3.094,3.094,0,0,0-5.225,0,10.816,10.816,0,0,0,0,8.883,3.094,3.094,0,0,0,5.225,0Z" transform="translate(-440.27 -277.103)" fill="#e30513"/>
  <path id="Caminho_4830" data-name="Caminho 4830" d="M474.085,309.957a5.554,5.554,0,0,1,2.273,2,5.378,5.378,0,0,1,.836,2.992,5.709,5.709,0,0,1-.913,3.213,5.986,5.986,0,0,1-2.5,2.128,8.153,8.153,0,0,1-3.513.744,7.762,7.762,0,0,1-6.008-2.351q-2.17-2.352-2.169-6.715a11.25,11.25,0,0,1,1.175-5.33,8.013,8.013,0,0,1,3.279-3.37,10.017,10.017,0,0,1,4.873-1.148,11.869,11.869,0,0,1,2.808.326,7.516,7.516,0,0,1,2.286.928l-1.567,3.108a6.018,6.018,0,0,0-3.423-.914,4.971,4.971,0,0,0-3.683,1.359,5.69,5.69,0,0,0-1.465,3.944,6.114,6.114,0,0,1,4.521-1.619A7.135,7.135,0,0,1,474.085,309.957Zm-1.84,7.186a2.488,2.488,0,0,0,.848-1.985,2.526,2.526,0,0,0-.848-2,3.308,3.308,0,0,0-2.261-.744,3.349,3.349,0,0,0-2.273.769,2.647,2.647,0,0,0-.026,3.933,3.434,3.434,0,0,0,2.351.758A3.267,3.267,0,0,0,472.246,317.143Z" transform="translate(-436.31 -277.103)" fill="#e30513"/>
  <g id="Grupo_1914" data-name="Grupo 1914" transform="translate(23.737 7.295)">
    <path id="Caminho_4831" data-name="Caminho 4831" d="M460.756,288.354h.664v2.328h1.439v.542h-2.1Z" transform="translate(-460.432 -288.354)" fill="#fff"/>
    <path id="Caminho_4832" data-name="Caminho 4832" d="M462.679,288.354h.664v2.87h-.664Z" transform="translate(-459.879 -288.354)" fill="#fff"/>
    <path id="Caminho_4833" data-name="Caminho 4833" d="M463.248,292.99a.721.721,0,0,1,.139.449.666.666,0,0,1-.292.581,1.5,1.5,0,0,1-.855.2h-1.484v-2.87h1.4a1.375,1.375,0,0,1,.806.2.636.636,0,0,1,.281.545.688.688,0,0,1-.381.631A.765.765,0,0,1,463.248,292.99Zm-1.832-1.137v.677h.659a.672.672,0,0,0,.373-.086.289.289,0,0,0,.127-.255.283.283,0,0,0-.127-.252.686.686,0,0,0-.373-.084Zm1.17,1.783a.293.293,0,0,0,.133-.266c0-.238-.175-.357-.528-.357h-.775v.709h.775A.732.732,0,0,0,462.587,293.636Z" transform="translate(-460.432 -287.492)" fill="#fff"/>
    <path id="Caminho_4834" data-name="Caminho 4834" d="M465.414,293.689v.534h-2.222v-2.87h2.168v.533h-1.508v.622h1.332v.518h-1.332v.663Z" transform="translate(-459.732 -287.492)" fill="#fff"/>
    <path id="Caminho_4835" data-name="Caminho 4835" d="M467.157,294.224l-.555-.8h-.61v.8h-.664v-2.87h1.242a1.6,1.6,0,0,1,.662.126.984.984,0,0,1,.433.36,1,1,0,0,1,.152.555.932.932,0,0,1-.59.905l.642.923Zm-.169-2.2a.7.7,0,0,0-.454-.129h-.542v1h.542a.691.691,0,0,0,.454-.131.517.517,0,0,0,0-.74Z" transform="translate(-459.118 -287.492)" fill="#fff"/>
    <path id="Caminho_4836" data-name="Caminho 4836" d="M461.423,294.895H460.5v-.541h2.5v.541h-.919v2.329h-.663Z" transform="translate(-460.504 -286.63)" fill="#fff"/>
    <path id="Caminho_4837" data-name="Caminho 4837" d="M464.587,296.608h-1.334l-.254.615h-.681l1.28-2.87h.655l1.284,2.87h-.7Zm-.21-.5-.456-1.1-.454,1.1Z" transform="translate(-459.982 -286.63)" fill="#fff"/>
    <path id="Caminho_4838" data-name="Caminho 4838" d="M460.756,297.354h1.3a1.831,1.831,0,0,1,.825.178,1.327,1.327,0,0,1,.557.5,1.526,1.526,0,0,1,0,1.509,1.328,1.328,0,0,1-.557.5,1.832,1.832,0,0,1-.825.179h-1.3Zm1.271,2.324a.962.962,0,0,0,.686-.239.949.949,0,0,0,0-1.3.962.962,0,0,0-.686-.239h-.606v1.779Z" transform="translate(-460.432 -285.768)" fill="#fff"/>
    <path id="Caminho_4839" data-name="Caminho 4839" d="M464.011,300.091a1.431,1.431,0,0,1-.563-.53,1.533,1.533,0,0,1,0-1.522,1.431,1.431,0,0,1,.563-.53,1.77,1.77,0,0,1,1.608,0,1.432,1.432,0,0,1,.767,1.291,1.439,1.439,0,0,1-.2.761,1.458,1.458,0,0,1-.563.53,1.77,1.77,0,0,1-1.608,0Zm1.264-.491a.833.833,0,0,0,.322-.326,1.022,1.022,0,0,0,0-.95.832.832,0,0,0-.322-.326.957.957,0,0,0-.918,0,.816.816,0,0,0-.322.326,1.022,1.022,0,0,0,0,.95.816.816,0,0,0,.322.326.958.958,0,0,0,.918,0Z" transform="translate(-459.716 -285.779)" fill="#fff"/>
    <path id="Caminho_4840" data-name="Caminho 4840" d="M467.9,300.223l-.555-.8h-.61v.8h-.664v-2.87h1.242a1.6,1.6,0,0,1,.662.126.977.977,0,0,1,.433.36,1,1,0,0,1,.152.555.932.932,0,0,1-.59.9l.642.923Zm-.169-2.2a.7.7,0,0,0-.454-.129h-.542v1h.542a.689.689,0,0,0,.454-.131.518.518,0,0,0,0-.74Z" transform="translate(-458.904 -285.768)" fill="#fff"/>
    <path id="Caminho_4841" data-name="Caminho 4841" d="M470.636,299.689v.534h-2.222v-2.87h2.168v.533h-1.509v.622h1.332v.518h-1.332v.663Z" transform="translate(-458.231 -285.768)" fill="#fff"/>
    <path id="Caminho_4842" data-name="Caminho 4842" d="M470.885,300.191a1.565,1.565,0,0,1-.51-.239l.225-.5a1.518,1.518,0,0,0,.439.218,1.629,1.629,0,0,0,.509.082.819.819,0,0,0,.418-.084.256.256,0,0,0,.135-.224.215.215,0,0,0-.08-.17.617.617,0,0,0-.2-.109c-.084-.027-.2-.057-.339-.09a4.667,4.667,0,0,1-.537-.154.893.893,0,0,1-.359-.251.67.67,0,0,1-.149-.458.8.8,0,0,1,.135-.453.908.908,0,0,1,.408-.322,1.65,1.65,0,0,1,.666-.12,2.262,2.262,0,0,1,.537.066,1.578,1.578,0,0,1,.46.189l-.2.5a1.611,1.611,0,0,0-.8-.225.752.752,0,0,0-.412.09.276.276,0,0,0-.133.238.23.23,0,0,0,.153.219,2.388,2.388,0,0,0,.47.142,4.866,4.866,0,0,1,.536.156.891.891,0,0,1,.359.246.66.66,0,0,1,.151.456.783.783,0,0,1-.138.448.92.92,0,0,1-.412.322,1.667,1.667,0,0,1-.668.12A2.343,2.343,0,0,1,470.885,300.191Z" transform="translate(-457.668 -285.779)" fill="#fff"/>
  </g>
</svg>
